<mxfile host="drawio-plugin" modified="2023-04-11T14:25:41.144Z" agent="5.0 (Macintosh; Intel Mac OS X 10_15_7) AppleWebKit/537.36 (KHTML, like Gecko) Chrome/104.0.5112.102 Safari/537.36" etag="svJGjvO5ewvzGSEB3qNB" version="20.5.3" type="embed"><diagram id="R2lEEEUBdFMjLlhIrx00" name="Page-1"><mxGraphModel dx="883" dy="630" grid="1" gridSize="10" guides="1" tooltips="1" connect="1" arrows="1" fold="1" page="1" pageScale="1" pageWidth="1100" pageHeight="850" math="0" shadow="0" extFonts="Permanent Marker^https://fonts.googleapis.com/css?family=Permanent+Marker"><root><mxCell id="0"/><mxCell id="1" parent="0"/><mxCell id="C-vyLk0tnHw3VtMMgP7b-1" value="" style="edgeStyle=orthogonalEdgeStyle;endArrow=none;startArrow=none;endFill=0;startFill=0;entryX=0;entryY=0.5;entryDx=0;entryDy=0;exitX=1;exitY=0.5;exitDx=0;exitDy=0;" parent="1" source="lqvGJIxWQBwntYFB9ahe-32" target="lqvGJIxWQBwntYFB9ahe-25" edge="1"><mxGeometry width="100" height="100" relative="1" as="geometry"><mxPoint x="240" y="70" as="sourcePoint"/><mxPoint x="400" y="160" as="targetPoint"/><Array as="points"><mxPoint x="280" y="85"/><mxPoint x="280" y="235"/></Array></mxGeometry></mxCell><mxCell id="lqvGJIxWQBwntYFB9ahe-107" value="m" style="edgeLabel;html=1;align=center;verticalAlign=middle;resizable=0;points=[];" parent="C-vyLk0tnHw3VtMMgP7b-1" vertex="1" connectable="0"><mxGeometry x="0.8764" y="4" relative="1" as="geometry"><mxPoint as="offset"/></mxGeometry></mxCell><mxCell id="C-vyLk0tnHw3VtMMgP7b-2" value="person" style="shape=table;startSize=30;container=1;collapsible=1;childLayout=tableLayout;fixedRows=1;rowLines=0;fontStyle=1;align=center;resizeLast=1;" parent="1" vertex="1"><mxGeometry x="302" y="40" width="220" height="210" as="geometry"/></mxCell><mxCell id="C-vyLk0tnHw3VtMMgP7b-3" value="" style="shape=partialRectangle;collapsible=0;dropTarget=0;pointerEvents=0;fillColor=none;points=[[0,0.5],[1,0.5]];portConstraint=eastwest;top=0;left=0;right=0;bottom=1;" parent="C-vyLk0tnHw3VtMMgP7b-2" vertex="1"><mxGeometry y="30" width="220" height="30" as="geometry"/></mxCell><mxCell id="C-vyLk0tnHw3VtMMgP7b-4" value="PK" style="shape=partialRectangle;overflow=hidden;connectable=0;fillColor=none;top=0;left=0;bottom=0;right=0;fontStyle=1;" parent="C-vyLk0tnHw3VtMMgP7b-3" vertex="1"><mxGeometry width="30" height="30" as="geometry"><mxRectangle width="30" height="30" as="alternateBounds"/></mxGeometry></mxCell><mxCell id="C-vyLk0tnHw3VtMMgP7b-5" value="id bigint NOT NULL " style="shape=partialRectangle;overflow=hidden;connectable=0;fillColor=none;top=0;left=0;bottom=0;right=0;align=left;spacingLeft=6;fontStyle=5;" parent="C-vyLk0tnHw3VtMMgP7b-3" vertex="1"><mxGeometry x="30" width="190" height="30" as="geometry"><mxRectangle width="190" height="30" as="alternateBounds"/></mxGeometry></mxCell><mxCell id="C-vyLk0tnHw3VtMMgP7b-6" value="" style="shape=partialRectangle;collapsible=0;dropTarget=0;pointerEvents=0;fillColor=none;points=[[0,0.5],[1,0.5]];portConstraint=eastwest;top=0;left=0;right=0;bottom=0;" parent="C-vyLk0tnHw3VtMMgP7b-2" vertex="1"><mxGeometry y="60" width="220" height="30" as="geometry"/></mxCell><mxCell id="C-vyLk0tnHw3VtMMgP7b-7" value="" style="shape=partialRectangle;overflow=hidden;connectable=0;fillColor=none;top=0;left=0;bottom=0;right=0;" parent="C-vyLk0tnHw3VtMMgP7b-6" vertex="1"><mxGeometry width="30" height="30" as="geometry"><mxRectangle width="30" height="30" as="alternateBounds"/></mxGeometry></mxCell><mxCell id="C-vyLk0tnHw3VtMMgP7b-8" value="lastname varchar(50) NOT NULL" style="shape=partialRectangle;overflow=hidden;connectable=0;fillColor=none;top=0;left=0;bottom=0;right=0;align=left;spacingLeft=6;" parent="C-vyLk0tnHw3VtMMgP7b-6" vertex="1"><mxGeometry x="30" width="190" height="30" as="geometry"><mxRectangle width="190" height="30" as="alternateBounds"/></mxGeometry></mxCell><mxCell id="lqvGJIxWQBwntYFB9ahe-19" value="" style="shape=tableRow;horizontal=0;startSize=0;swimlaneHead=0;swimlaneBody=0;fillColor=none;collapsible=0;dropTarget=0;points=[[0,0.5],[1,0.5]];portConstraint=eastwest;top=0;left=0;right=0;bottom=0;" parent="C-vyLk0tnHw3VtMMgP7b-2" vertex="1"><mxGeometry y="90" width="220" height="30" as="geometry"/></mxCell><mxCell id="lqvGJIxWQBwntYFB9ahe-20" value="" style="shape=partialRectangle;connectable=0;fillColor=none;top=0;left=0;bottom=0;right=0;editable=1;overflow=hidden;" parent="lqvGJIxWQBwntYFB9ahe-19" vertex="1"><mxGeometry width="30" height="30" as="geometry"><mxRectangle width="30" height="30" as="alternateBounds"/></mxGeometry></mxCell><mxCell id="lqvGJIxWQBwntYFB9ahe-21" value="firstname varchar(50) NOT NULL" style="shape=partialRectangle;connectable=0;fillColor=none;top=0;left=0;bottom=0;right=0;align=left;spacingLeft=6;overflow=hidden;" parent="lqvGJIxWQBwntYFB9ahe-19" vertex="1"><mxGeometry x="30" width="190" height="30" as="geometry"><mxRectangle width="190" height="30" as="alternateBounds"/></mxGeometry></mxCell><mxCell id="lqvGJIxWQBwntYFB9ahe-22" value="" style="shape=tableRow;horizontal=0;startSize=0;swimlaneHead=0;swimlaneBody=0;fillColor=none;collapsible=0;dropTarget=0;points=[[0,0.5],[1,0.5]];portConstraint=eastwest;top=0;left=0;right=0;bottom=0;" parent="C-vyLk0tnHw3VtMMgP7b-2" vertex="1"><mxGeometry y="120" width="220" height="30" as="geometry"/></mxCell><mxCell id="lqvGJIxWQBwntYFB9ahe-23" value="" style="shape=partialRectangle;connectable=0;fillColor=none;top=0;left=0;bottom=0;right=0;editable=1;overflow=hidden;" parent="lqvGJIxWQBwntYFB9ahe-22" vertex="1"><mxGeometry width="30" height="30" as="geometry"><mxRectangle width="30" height="30" as="alternateBounds"/></mxGeometry></mxCell><mxCell id="lqvGJIxWQBwntYFB9ahe-24" value="email varchar(50) NOT NULL" style="shape=partialRectangle;connectable=0;fillColor=none;top=0;left=0;bottom=0;right=0;align=left;spacingLeft=6;overflow=hidden;" parent="lqvGJIxWQBwntYFB9ahe-22" vertex="1"><mxGeometry x="30" width="190" height="30" as="geometry"><mxRectangle width="190" height="30" as="alternateBounds"/></mxGeometry></mxCell><mxCell id="-pVWN-5g0OcptFUe22VX-40" value="" style="shape=tableRow;horizontal=0;startSize=0;swimlaneHead=0;swimlaneBody=0;fillColor=none;collapsible=0;dropTarget=0;points=[[0,0.5],[1,0.5]];portConstraint=eastwest;top=0;left=0;right=0;bottom=0;" parent="C-vyLk0tnHw3VtMMgP7b-2" vertex="1"><mxGeometry y="150" width="220" height="30" as="geometry"/></mxCell><mxCell id="-pVWN-5g0OcptFUe22VX-41" value="" style="shape=partialRectangle;connectable=0;fillColor=none;top=0;left=0;bottom=0;right=0;editable=1;overflow=hidden;" parent="-pVWN-5g0OcptFUe22VX-40" vertex="1"><mxGeometry width="30" height="30" as="geometry"><mxRectangle width="30" height="30" as="alternateBounds"/></mxGeometry></mxCell><mxCell id="-pVWN-5g0OcptFUe22VX-42" value="phoneNumber varchar(20)" style="shape=partialRectangle;connectable=0;fillColor=none;top=0;left=0;bottom=0;right=0;align=left;spacingLeft=6;overflow=hidden;" parent="-pVWN-5g0OcptFUe22VX-40" vertex="1"><mxGeometry x="30" width="190" height="30" as="geometry"><mxRectangle width="190" height="30" as="alternateBounds"/></mxGeometry></mxCell><mxCell id="lqvGJIxWQBwntYFB9ahe-25" value="" style="shape=tableRow;horizontal=0;startSize=0;swimlaneHead=0;swimlaneBody=0;fillColor=none;collapsible=0;dropTarget=0;points=[[0,0.5],[1,0.5]];portConstraint=eastwest;top=0;left=0;right=0;bottom=0;" parent="C-vyLk0tnHw3VtMMgP7b-2" vertex="1"><mxGeometry y="180" width="220" height="30" as="geometry"/></mxCell><mxCell id="lqvGJIxWQBwntYFB9ahe-26" value="FK" style="shape=partialRectangle;connectable=0;fillColor=none;top=0;left=0;bottom=0;right=0;editable=1;overflow=hidden;" parent="lqvGJIxWQBwntYFB9ahe-25" vertex="1"><mxGeometry width="30" height="30" as="geometry"><mxRectangle width="30" height="30" as="alternateBounds"/></mxGeometry></mxCell><mxCell id="lqvGJIxWQBwntYFB9ahe-27" value="address_location_id bigint" style="shape=partialRectangle;connectable=0;fillColor=none;top=0;left=0;bottom=0;right=0;align=left;spacingLeft=6;overflow=hidden;" parent="lqvGJIxWQBwntYFB9ahe-25" vertex="1"><mxGeometry x="30" width="190" height="30" as="geometry"><mxRectangle width="190" height="30" as="alternateBounds"/></mxGeometry></mxCell><mxCell id="C-vyLk0tnHw3VtMMgP7b-13" value="rentalUnit" style="shape=table;startSize=30;container=1;collapsible=1;childLayout=tableLayout;fixedRows=1;rowLines=0;fontStyle=1;align=center;resizeLast=1;" parent="1" vertex="1"><mxGeometry x="302" y="280" width="220" height="300" as="geometry"/></mxCell><mxCell id="C-vyLk0tnHw3VtMMgP7b-14" value="" style="shape=partialRectangle;collapsible=0;dropTarget=0;pointerEvents=0;fillColor=none;points=[[0,0.5],[1,0.5]];portConstraint=eastwest;top=0;left=0;right=0;bottom=1;" parent="C-vyLk0tnHw3VtMMgP7b-13" vertex="1"><mxGeometry y="30" width="220" height="30" as="geometry"/></mxCell><mxCell id="C-vyLk0tnHw3VtMMgP7b-15" value="PK" style="shape=partialRectangle;overflow=hidden;connectable=0;fillColor=none;top=0;left=0;bottom=0;right=0;fontStyle=1;" parent="C-vyLk0tnHw3VtMMgP7b-14" vertex="1"><mxGeometry width="30" height="30" as="geometry"><mxRectangle width="30" height="30" as="alternateBounds"/></mxGeometry></mxCell><mxCell id="C-vyLk0tnHw3VtMMgP7b-16" value="id bigint NOT NULL " style="shape=partialRectangle;overflow=hidden;connectable=0;fillColor=none;top=0;left=0;bottom=0;right=0;align=left;spacingLeft=6;fontStyle=5;" parent="C-vyLk0tnHw3VtMMgP7b-14" vertex="1"><mxGeometry x="30" width="190" height="30" as="geometry"><mxRectangle width="190" height="30" as="alternateBounds"/></mxGeometry></mxCell><mxCell id="C-vyLk0tnHw3VtMMgP7b-17" value="" style="shape=partialRectangle;collapsible=0;dropTarget=0;pointerEvents=0;fillColor=none;points=[[0,0.5],[1,0.5]];portConstraint=eastwest;top=0;left=0;right=0;bottom=0;" parent="C-vyLk0tnHw3VtMMgP7b-13" vertex="1"><mxGeometry y="60" width="220" height="30" as="geometry"/></mxCell><mxCell id="C-vyLk0tnHw3VtMMgP7b-18" value="" style="shape=partialRectangle;overflow=hidden;connectable=0;fillColor=none;top=0;left=0;bottom=0;right=0;" parent="C-vyLk0tnHw3VtMMgP7b-17" vertex="1"><mxGeometry width="30" height="30" as="geometry"><mxRectangle width="30" height="30" as="alternateBounds"/></mxGeometry></mxCell><mxCell id="C-vyLk0tnHw3VtMMgP7b-19" value="name varchar(50) NOT NULL" style="shape=partialRectangle;overflow=hidden;connectable=0;fillColor=none;top=0;left=0;bottom=0;right=0;align=left;spacingLeft=6;" parent="C-vyLk0tnHw3VtMMgP7b-17" vertex="1"><mxGeometry x="30" width="190" height="30" as="geometry"><mxRectangle width="190" height="30" as="alternateBounds"/></mxGeometry></mxCell><mxCell id="lqvGJIxWQBwntYFB9ahe-194" value="" style="shape=tableRow;horizontal=0;startSize=0;swimlaneHead=0;swimlaneBody=0;fillColor=none;collapsible=0;dropTarget=0;points=[[0,0.5],[1,0.5]];portConstraint=eastwest;top=0;left=0;right=0;bottom=0;" parent="C-vyLk0tnHw3VtMMgP7b-13" vertex="1"><mxGeometry y="90" width="220" height="30" as="geometry"/></mxCell><mxCell id="lqvGJIxWQBwntYFB9ahe-195" value="" style="shape=partialRectangle;connectable=0;fillColor=none;top=0;left=0;bottom=0;right=0;fontStyle=0;overflow=hidden;whiteSpace=wrap;html=1;" parent="lqvGJIxWQBwntYFB9ahe-194" vertex="1"><mxGeometry width="30" height="30" as="geometry"><mxRectangle width="30" height="30" as="alternateBounds"/></mxGeometry></mxCell><mxCell id="lqvGJIxWQBwntYFB9ahe-196" value="unitType varchar(50) NOT NULL" style="shape=partialRectangle;connectable=0;fillColor=none;top=0;left=0;bottom=0;right=0;align=left;spacingLeft=6;fontStyle=0;overflow=hidden;whiteSpace=wrap;html=1;" parent="lqvGJIxWQBwntYFB9ahe-194" vertex="1"><mxGeometry x="30" width="190" height="30" as="geometry"><mxRectangle width="190" height="30" as="alternateBounds"/></mxGeometry></mxCell><mxCell id="lqvGJIxWQBwntYFB9ahe-28" value="" style="shape=tableRow;horizontal=0;startSize=0;swimlaneHead=0;swimlaneBody=0;fillColor=none;collapsible=0;dropTarget=0;points=[[0,0.5],[1,0.5]];portConstraint=eastwest;top=0;left=0;right=0;bottom=0;" parent="C-vyLk0tnHw3VtMMgP7b-13" vertex="1"><mxGeometry y="120" width="220" height="30" as="geometry"/></mxCell><mxCell id="lqvGJIxWQBwntYFB9ahe-29" value="" style="shape=partialRectangle;connectable=0;fillColor=none;top=0;left=0;bottom=0;right=0;editable=1;overflow=hidden;" parent="lqvGJIxWQBwntYFB9ahe-28" vertex="1"><mxGeometry width="30" height="30" as="geometry"><mxRectangle width="30" height="30" as="alternateBounds"/></mxGeometry></mxCell><mxCell id="lqvGJIxWQBwntYFB9ahe-30" value="description varchar(250)" style="shape=partialRectangle;connectable=0;fillColor=none;top=0;left=0;bottom=0;right=0;align=left;spacingLeft=6;overflow=hidden;" parent="lqvGJIxWQBwntYFB9ahe-28" vertex="1"><mxGeometry x="30" width="190" height="30" as="geometry"><mxRectangle width="190" height="30" as="alternateBounds"/></mxGeometry></mxCell><mxCell id="-pVWN-5g0OcptFUe22VX-73" value="" style="shape=tableRow;horizontal=0;startSize=0;swimlaneHead=0;swimlaneBody=0;fillColor=none;collapsible=0;dropTarget=0;points=[[0,0.5],[1,0.5]];portConstraint=eastwest;top=0;left=0;right=0;bottom=0;" parent="C-vyLk0tnHw3VtMMgP7b-13" vertex="1"><mxGeometry y="150" width="220" height="30" as="geometry"/></mxCell><mxCell id="-pVWN-5g0OcptFUe22VX-74" value="" style="shape=partialRectangle;connectable=0;fillColor=none;top=0;left=0;bottom=0;right=0;editable=1;overflow=hidden;" parent="-pVWN-5g0OcptFUe22VX-73" vertex="1"><mxGeometry width="30" height="30" as="geometry"><mxRectangle width="30" height="30" as="alternateBounds"/></mxGeometry></mxCell><mxCell id="-pVWN-5g0OcptFUe22VX-75" value="reservationSlotSize int NOT NULL" style="shape=partialRectangle;connectable=0;fillColor=none;top=0;left=0;bottom=0;right=0;align=left;spacingLeft=6;overflow=hidden;" parent="-pVWN-5g0OcptFUe22VX-73" vertex="1"><mxGeometry x="30" width="190" height="30" as="geometry"><mxRectangle width="190" height="30" as="alternateBounds"/></mxGeometry></mxCell><mxCell id="-pVWN-5g0OcptFUe22VX-76" value="" style="shape=tableRow;horizontal=0;startSize=0;swimlaneHead=0;swimlaneBody=0;fillColor=none;collapsible=0;dropTarget=0;points=[[0,0.5],[1,0.5]];portConstraint=eastwest;top=0;left=0;right=0;bottom=0;" parent="C-vyLk0tnHw3VtMMgP7b-13" vertex="1"><mxGeometry y="180" width="220" height="30" as="geometry"/></mxCell><mxCell id="-pVWN-5g0OcptFUe22VX-77" value="FK" style="shape=partialRectangle;connectable=0;fillColor=none;top=0;left=0;bottom=0;right=0;editable=1;overflow=hidden;" parent="-pVWN-5g0OcptFUe22VX-76" vertex="1"><mxGeometry width="30" height="30" as="geometry"><mxRectangle width="30" height="30" as="alternateBounds"/></mxGeometry></mxCell><mxCell id="-pVWN-5g0OcptFUe22VX-78" value="slotPrice_amount_id bigint NOT NULL" style="shape=partialRectangle;connectable=0;fillColor=none;top=0;left=0;bottom=0;right=0;align=left;spacingLeft=6;overflow=hidden;" parent="-pVWN-5g0OcptFUe22VX-76" vertex="1"><mxGeometry x="30" width="190" height="30" as="geometry"><mxRectangle width="190" height="30" as="alternateBounds"/></mxGeometry></mxCell><mxCell id="-pVWN-5g0OcptFUe22VX-30" value="" style="shape=tableRow;horizontal=0;startSize=0;swimlaneHead=0;swimlaneBody=0;fillColor=none;collapsible=0;dropTarget=0;points=[[0,0.5],[1,0.5]];portConstraint=eastwest;top=0;left=0;right=0;bottom=0;" parent="C-vyLk0tnHw3VtMMgP7b-13" vertex="1"><mxGeometry y="210" width="220" height="30" as="geometry"/></mxCell><mxCell id="-pVWN-5g0OcptFUe22VX-31" value="FK" style="shape=partialRectangle;connectable=0;fillColor=none;top=0;left=0;bottom=0;right=0;fontStyle=0;overflow=hidden;whiteSpace=wrap;html=1;" parent="-pVWN-5g0OcptFUe22VX-30" vertex="1"><mxGeometry width="30" height="30" as="geometry"><mxRectangle width="30" height="30" as="alternateBounds"/></mxGeometry></mxCell><mxCell id="-pVWN-5g0OcptFUe22VX-32" value="unitOwner_person_id bigint&amp;nbsp;NOT NULL" style="shape=partialRectangle;connectable=0;fillColor=none;top=0;left=0;bottom=0;right=0;align=left;spacingLeft=6;fontStyle=0;overflow=hidden;whiteSpace=wrap;html=1;" parent="-pVWN-5g0OcptFUe22VX-30" vertex="1"><mxGeometry x="30" width="190" height="30" as="geometry"><mxRectangle width="190" height="30" as="alternateBounds"/></mxGeometry></mxCell><mxCell id="lqvGJIxWQBwntYFB9ahe-185" value="" style="shape=tableRow;horizontal=0;startSize=0;swimlaneHead=0;swimlaneBody=0;fillColor=none;collapsible=0;dropTarget=0;points=[[0,0.5],[1,0.5]];portConstraint=eastwest;top=0;left=0;right=0;bottom=0;" parent="C-vyLk0tnHw3VtMMgP7b-13" vertex="1"><mxGeometry y="240" width="220" height="30" as="geometry"/></mxCell><mxCell id="lqvGJIxWQBwntYFB9ahe-186" value="FK" style="shape=partialRectangle;connectable=0;fillColor=none;top=0;left=0;bottom=0;right=0;fontStyle=0;overflow=hidden;whiteSpace=wrap;html=1;" parent="lqvGJIxWQBwntYFB9ahe-185" vertex="1"><mxGeometry width="30" height="30" as="geometry"><mxRectangle width="30" height="30" as="alternateBounds"/></mxGeometry></mxCell><mxCell id="lqvGJIxWQBwntYFB9ahe-187" value="location_id bigint&amp;nbsp;NOT NULL" style="shape=partialRectangle;connectable=0;fillColor=none;top=0;left=0;bottom=0;right=0;align=left;spacingLeft=6;fontStyle=0;overflow=hidden;whiteSpace=wrap;html=1;" parent="lqvGJIxWQBwntYFB9ahe-185" vertex="1"><mxGeometry x="30" width="190" height="30" as="geometry"><mxRectangle width="190" height="30" as="alternateBounds"/></mxGeometry></mxCell><mxCell id="lqvGJIxWQBwntYFB9ahe-115" value="" style="shape=tableRow;horizontal=0;startSize=0;swimlaneHead=0;swimlaneBody=0;fillColor=none;collapsible=0;dropTarget=0;points=[[0,0.5],[1,0.5]];portConstraint=eastwest;top=0;left=0;right=0;bottom=0;" parent="C-vyLk0tnHw3VtMMgP7b-13" vertex="1"><mxGeometry y="270" width="220" height="30" as="geometry"/></mxCell><mxCell id="lqvGJIxWQBwntYFB9ahe-116" value="FK" style="shape=partialRectangle;connectable=0;fillColor=none;top=0;left=0;bottom=0;right=0;fontStyle=0;overflow=hidden;whiteSpace=wrap;html=1;" parent="lqvGJIxWQBwntYFB9ahe-115" vertex="1"><mxGeometry width="30" height="30" as="geometry"><mxRectangle width="30" height="30" as="alternateBounds"/></mxGeometry></mxCell><mxCell id="lqvGJIxWQBwntYFB9ahe-117" value="contact_person_id bigint&amp;nbsp;NOT NULL" style="shape=partialRectangle;connectable=0;fillColor=none;top=0;left=0;bottom=0;right=0;align=left;spacingLeft=6;fontStyle=0;overflow=hidden;whiteSpace=wrap;html=1;" parent="lqvGJIxWQBwntYFB9ahe-115" vertex="1"><mxGeometry x="30" width="190" height="30" as="geometry"><mxRectangle width="190" height="30" as="alternateBounds"/></mxGeometry></mxCell><mxCell id="lqvGJIxWQBwntYFB9ahe-31" value="location" style="shape=table;startSize=30;container=1;collapsible=1;childLayout=tableLayout;fixedRows=1;rowLines=0;fontStyle=1;align=center;resizeLast=1;" parent="1" vertex="1"><mxGeometry x="20" y="40" width="200" height="210" as="geometry"/></mxCell><mxCell id="lqvGJIxWQBwntYFB9ahe-32" value="" style="shape=partialRectangle;collapsible=0;dropTarget=0;pointerEvents=0;fillColor=none;points=[[0,0.5],[1,0.5]];portConstraint=eastwest;top=0;left=0;right=0;bottom=1;" parent="lqvGJIxWQBwntYFB9ahe-31" vertex="1"><mxGeometry y="30" width="200" height="30" as="geometry"/></mxCell><mxCell id="lqvGJIxWQBwntYFB9ahe-33" value="PK" style="shape=partialRectangle;overflow=hidden;connectable=0;fillColor=none;top=0;left=0;bottom=0;right=0;fontStyle=1;" parent="lqvGJIxWQBwntYFB9ahe-32" vertex="1"><mxGeometry width="30" height="30" as="geometry"><mxRectangle width="30" height="30" as="alternateBounds"/></mxGeometry></mxCell><mxCell id="lqvGJIxWQBwntYFB9ahe-34" value="id bigint NOT NULL " style="shape=partialRectangle;overflow=hidden;connectable=0;fillColor=none;top=0;left=0;bottom=0;right=0;align=left;spacingLeft=6;fontStyle=5;" parent="lqvGJIxWQBwntYFB9ahe-32" vertex="1"><mxGeometry x="30" width="170" height="30" as="geometry"><mxRectangle width="170" height="30" as="alternateBounds"/></mxGeometry></mxCell><mxCell id="lqvGJIxWQBwntYFB9ahe-35" value="" style="shape=partialRectangle;collapsible=0;dropTarget=0;pointerEvents=0;fillColor=none;points=[[0,0.5],[1,0.5]];portConstraint=eastwest;top=0;left=0;right=0;bottom=0;" parent="lqvGJIxWQBwntYFB9ahe-31" vertex="1"><mxGeometry y="60" width="200" height="30" as="geometry"/></mxCell><mxCell id="lqvGJIxWQBwntYFB9ahe-36" value="" style="shape=partialRectangle;overflow=hidden;connectable=0;fillColor=none;top=0;left=0;bottom=0;right=0;" parent="lqvGJIxWQBwntYFB9ahe-35" vertex="1"><mxGeometry width="30" height="30" as="geometry"><mxRectangle width="30" height="30" as="alternateBounds"/></mxGeometry></mxCell><mxCell id="lqvGJIxWQBwntYFB9ahe-37" value="street varchar(50)" style="shape=partialRectangle;overflow=hidden;connectable=0;fillColor=none;top=0;left=0;bottom=0;right=0;align=left;spacingLeft=6;" parent="lqvGJIxWQBwntYFB9ahe-35" vertex="1"><mxGeometry x="30" width="170" height="30" as="geometry"><mxRectangle width="170" height="30" as="alternateBounds"/></mxGeometry></mxCell><mxCell id="lqvGJIxWQBwntYFB9ahe-38" value="" style="shape=tableRow;horizontal=0;startSize=0;swimlaneHead=0;swimlaneBody=0;fillColor=none;collapsible=0;dropTarget=0;points=[[0,0.5],[1,0.5]];portConstraint=eastwest;top=0;left=0;right=0;bottom=0;" parent="lqvGJIxWQBwntYFB9ahe-31" vertex="1"><mxGeometry y="90" width="200" height="30" as="geometry"/></mxCell><mxCell id="lqvGJIxWQBwntYFB9ahe-39" value="" style="shape=partialRectangle;connectable=0;fillColor=none;top=0;left=0;bottom=0;right=0;editable=1;overflow=hidden;" parent="lqvGJIxWQBwntYFB9ahe-38" vertex="1"><mxGeometry width="30" height="30" as="geometry"><mxRectangle width="30" height="30" as="alternateBounds"/></mxGeometry></mxCell><mxCell id="lqvGJIxWQBwntYFB9ahe-40" value="zip varchar(5)" style="shape=partialRectangle;connectable=0;fillColor=none;top=0;left=0;bottom=0;right=0;align=left;spacingLeft=6;overflow=hidden;" parent="lqvGJIxWQBwntYFB9ahe-38" vertex="1"><mxGeometry x="30" width="170" height="30" as="geometry"><mxRectangle width="170" height="30" as="alternateBounds"/></mxGeometry></mxCell><mxCell id="lqvGJIxWQBwntYFB9ahe-41" value="" style="shape=tableRow;horizontal=0;startSize=0;swimlaneHead=0;swimlaneBody=0;fillColor=none;collapsible=0;dropTarget=0;points=[[0,0.5],[1,0.5]];portConstraint=eastwest;top=0;left=0;right=0;bottom=0;" parent="lqvGJIxWQBwntYFB9ahe-31" vertex="1"><mxGeometry y="120" width="200" height="30" as="geometry"/></mxCell><mxCell id="lqvGJIxWQBwntYFB9ahe-42" value="" style="shape=partialRectangle;connectable=0;fillColor=none;top=0;left=0;bottom=0;right=0;editable=1;overflow=hidden;" parent="lqvGJIxWQBwntYFB9ahe-41" vertex="1"><mxGeometry width="30" height="30" as="geometry"><mxRectangle width="30" height="30" as="alternateBounds"/></mxGeometry></mxCell><mxCell id="lqvGJIxWQBwntYFB9ahe-43" value="city varchar(50)" style="shape=partialRectangle;connectable=0;fillColor=none;top=0;left=0;bottom=0;right=0;align=left;spacingLeft=6;overflow=hidden;" parent="lqvGJIxWQBwntYFB9ahe-41" vertex="1"><mxGeometry x="30" width="170" height="30" as="geometry"><mxRectangle width="170" height="30" as="alternateBounds"/></mxGeometry></mxCell><mxCell id="lqvGJIxWQBwntYFB9ahe-124" value="" style="shape=tableRow;horizontal=0;startSize=0;swimlaneHead=0;swimlaneBody=0;fillColor=none;collapsible=0;dropTarget=0;points=[[0,0.5],[1,0.5]];portConstraint=eastwest;top=0;left=0;right=0;bottom=0;" parent="lqvGJIxWQBwntYFB9ahe-31" vertex="1"><mxGeometry y="150" width="200" height="30" as="geometry"/></mxCell><mxCell id="lqvGJIxWQBwntYFB9ahe-125" value="" style="shape=partialRectangle;connectable=0;fillColor=none;top=0;left=0;bottom=0;right=0;editable=1;overflow=hidden;" parent="lqvGJIxWQBwntYFB9ahe-124" vertex="1"><mxGeometry width="30" height="30" as="geometry"><mxRectangle width="30" height="30" as="alternateBounds"/></mxGeometry></mxCell><mxCell id="lqvGJIxWQBwntYFB9ahe-126" value="latitude float (NOT NULL)" style="shape=partialRectangle;connectable=0;fillColor=none;top=0;left=0;bottom=0;right=0;align=left;spacingLeft=6;overflow=hidden;" parent="lqvGJIxWQBwntYFB9ahe-124" vertex="1"><mxGeometry x="30" width="170" height="30" as="geometry"><mxRectangle width="170" height="30" as="alternateBounds"/></mxGeometry></mxCell><mxCell id="lqvGJIxWQBwntYFB9ahe-127" value="" style="shape=tableRow;horizontal=0;startSize=0;swimlaneHead=0;swimlaneBody=0;fillColor=none;collapsible=0;dropTarget=0;points=[[0,0.5],[1,0.5]];portConstraint=eastwest;top=0;left=0;right=0;bottom=0;" parent="lqvGJIxWQBwntYFB9ahe-31" vertex="1"><mxGeometry y="180" width="200" height="30" as="geometry"/></mxCell><mxCell id="lqvGJIxWQBwntYFB9ahe-128" value="" style="shape=partialRectangle;connectable=0;fillColor=none;top=0;left=0;bottom=0;right=0;editable=1;overflow=hidden;" parent="lqvGJIxWQBwntYFB9ahe-127" vertex="1"><mxGeometry width="30" height="30" as="geometry"><mxRectangle width="30" height="30" as="alternateBounds"/></mxGeometry></mxCell><mxCell id="lqvGJIxWQBwntYFB9ahe-129" value="longitude float (NOT NULL)" style="shape=partialRectangle;connectable=0;fillColor=none;top=0;left=0;bottom=0;right=0;align=left;spacingLeft=6;overflow=hidden;" parent="lqvGJIxWQBwntYFB9ahe-127" vertex="1"><mxGeometry x="30" width="170" height="30" as="geometry"><mxRectangle width="170" height="30" as="alternateBounds"/></mxGeometry></mxCell><mxCell id="lqvGJIxWQBwntYFB9ahe-48" value="reservationSeries" style="shape=table;startSize=30;container=1;collapsible=1;childLayout=tableLayout;fixedRows=1;rowLines=0;fontStyle=1;align=center;resizeLast=1;" parent="1" vertex="1"><mxGeometry x="780" y="440" width="220.33" height="360" as="geometry"/></mxCell><mxCell id="lqvGJIxWQBwntYFB9ahe-49" value="" style="shape=partialRectangle;collapsible=0;dropTarget=0;pointerEvents=0;fillColor=none;points=[[0,0.5],[1,0.5]];portConstraint=eastwest;top=0;left=0;right=0;bottom=1;" parent="lqvGJIxWQBwntYFB9ahe-48" vertex="1"><mxGeometry y="30" width="220.33" height="30" as="geometry"/></mxCell><mxCell id="lqvGJIxWQBwntYFB9ahe-50" value="PK" style="shape=partialRectangle;overflow=hidden;connectable=0;fillColor=none;top=0;left=0;bottom=0;right=0;fontStyle=1;" parent="lqvGJIxWQBwntYFB9ahe-49" vertex="1"><mxGeometry width="30" height="30" as="geometry"><mxRectangle width="30" height="30" as="alternateBounds"/></mxGeometry></mxCell><mxCell id="lqvGJIxWQBwntYFB9ahe-51" value="id bigint NOT NULL " style="shape=partialRectangle;overflow=hidden;connectable=0;fillColor=none;top=0;left=0;bottom=0;right=0;align=left;spacingLeft=6;fontStyle=5;" parent="lqvGJIxWQBwntYFB9ahe-49" vertex="1"><mxGeometry x="30" width="190.33" height="30" as="geometry"><mxRectangle width="190.33" height="30" as="alternateBounds"/></mxGeometry></mxCell><mxCell id="TYnw7XijjEmuvCzUd5s6-1" value="" style="shape=tableRow;horizontal=0;startSize=0;swimlaneHead=0;swimlaneBody=0;fillColor=none;collapsible=0;dropTarget=0;points=[[0,0.5],[1,0.5]];portConstraint=eastwest;top=0;left=0;right=0;bottom=0;" parent="lqvGJIxWQBwntYFB9ahe-48" vertex="1"><mxGeometry y="60" width="220.33" height="30" as="geometry"/></mxCell><mxCell id="TYnw7XijjEmuvCzUd5s6-2" value="FK" style="shape=partialRectangle;connectable=0;fillColor=none;top=0;left=0;bottom=0;right=0;fontStyle=0;overflow=hidden;whiteSpace=wrap;html=1;" parent="TYnw7XijjEmuvCzUd5s6-1" vertex="1"><mxGeometry width="30" height="30" as="geometry"><mxRectangle width="30" height="30" as="alternateBounds"/></mxGeometry></mxCell><mxCell id="TYnw7XijjEmuvCzUd5s6-3" value="booking_id bigint&amp;nbsp;" style="shape=partialRectangle;connectable=0;fillColor=none;top=0;left=0;bottom=0;right=0;align=left;spacingLeft=6;fontStyle=0;overflow=hidden;whiteSpace=wrap;html=1;" parent="TYnw7XijjEmuvCzUd5s6-1" vertex="1"><mxGeometry x="30" width="190.33" height="30" as="geometry"><mxRectangle width="190.33" height="30" as="alternateBounds"/></mxGeometry></mxCell><mxCell id="-pVWN-5g0OcptFUe22VX-49" value="" style="shape=tableRow;horizontal=0;startSize=0;swimlaneHead=0;swimlaneBody=0;fillColor=none;collapsible=0;dropTarget=0;points=[[0,0.5],[1,0.5]];portConstraint=eastwest;top=0;left=0;right=0;bottom=0;" parent="lqvGJIxWQBwntYFB9ahe-48" vertex="1"><mxGeometry y="90" width="220.33" height="30" as="geometry"/></mxCell><mxCell id="-pVWN-5g0OcptFUe22VX-50" value="FK" style="shape=partialRectangle;connectable=0;fillColor=none;top=0;left=0;bottom=0;right=0;fontStyle=0;overflow=hidden;whiteSpace=wrap;html=1;" parent="-pVWN-5g0OcptFUe22VX-49" vertex="1"><mxGeometry width="30" height="30" as="geometry"><mxRectangle width="30" height="30" as="alternateBounds"/></mxGeometry></mxCell><mxCell id="-pVWN-5g0OcptFUe22VX-51" value="contact_person_id bigint&amp;nbsp;NOT NULL" style="shape=partialRectangle;connectable=0;fillColor=none;top=0;left=0;bottom=0;right=0;align=left;spacingLeft=6;fontStyle=0;overflow=hidden;whiteSpace=wrap;html=1;" parent="-pVWN-5g0OcptFUe22VX-49" vertex="1"><mxGeometry x="30" width="190.33" height="30" as="geometry"><mxRectangle width="190.33" height="30" as="alternateBounds"/></mxGeometry></mxCell><mxCell id="lqvGJIxWQBwntYFB9ahe-133" value="" style="shape=tableRow;horizontal=0;startSize=0;swimlaneHead=0;swimlaneBody=0;fillColor=none;collapsible=0;dropTarget=0;points=[[0,0.5],[1,0.5]];portConstraint=eastwest;top=0;left=0;right=0;bottom=0;" parent="lqvGJIxWQBwntYFB9ahe-48" vertex="1"><mxGeometry y="120" width="220.33" height="30" as="geometry"/></mxCell><mxCell id="lqvGJIxWQBwntYFB9ahe-134" value="FK" style="shape=partialRectangle;connectable=0;fillColor=none;top=0;left=0;bottom=0;right=0;fontStyle=0;overflow=hidden;whiteSpace=wrap;html=1;" parent="lqvGJIxWQBwntYFB9ahe-133" vertex="1"><mxGeometry width="30" height="30" as="geometry"><mxRectangle width="30" height="30" as="alternateBounds"/></mxGeometry></mxCell><mxCell id="lqvGJIxWQBwntYFB9ahe-135" value="rentalUnit_id bigint&amp;nbsp;NOT NULL" style="shape=partialRectangle;connectable=0;fillColor=none;top=0;left=0;bottom=0;right=0;align=left;spacingLeft=6;fontStyle=0;overflow=hidden;whiteSpace=wrap;html=1;" parent="lqvGJIxWQBwntYFB9ahe-133" vertex="1"><mxGeometry x="30" width="190.33" height="30" as="geometry"><mxRectangle width="190.33" height="30" as="alternateBounds"/></mxGeometry></mxCell><mxCell id="lqvGJIxWQBwntYFB9ahe-140" value="" style="shape=tableRow;horizontal=0;startSize=0;swimlaneHead=0;swimlaneBody=0;fillColor=none;collapsible=0;dropTarget=0;points=[[0,0.5],[1,0.5]];portConstraint=eastwest;top=0;left=0;right=0;bottom=0;" parent="lqvGJIxWQBwntYFB9ahe-48" vertex="1"><mxGeometry y="150" width="220.33" height="30" as="geometry"/></mxCell><mxCell id="lqvGJIxWQBwntYFB9ahe-141" value="" style="shape=partialRectangle;connectable=0;fillColor=none;top=0;left=0;bottom=0;right=0;editable=1;overflow=hidden;" parent="lqvGJIxWQBwntYFB9ahe-140" vertex="1"><mxGeometry width="30" height="30" as="geometry"><mxRectangle width="30" height="30" as="alternateBounds"/></mxGeometry></mxCell><mxCell id="lqvGJIxWQBwntYFB9ahe-142" value="reservationFrom time NOT NULL" style="shape=partialRectangle;connectable=0;fillColor=none;top=0;left=0;bottom=0;right=0;align=left;spacingLeft=6;overflow=hidden;" parent="lqvGJIxWQBwntYFB9ahe-140" vertex="1"><mxGeometry x="30" width="190.33" height="30" as="geometry"><mxRectangle width="190.33" height="30" as="alternateBounds"/></mxGeometry></mxCell><mxCell id="lqvGJIxWQBwntYFB9ahe-146" value="" style="shape=tableRow;horizontal=0;startSize=0;swimlaneHead=0;swimlaneBody=0;fillColor=none;collapsible=0;dropTarget=0;points=[[0,0.5],[1,0.5]];portConstraint=eastwest;top=0;left=0;right=0;bottom=0;" parent="lqvGJIxWQBwntYFB9ahe-48" vertex="1"><mxGeometry y="180" width="220.33" height="30" as="geometry"/></mxCell><mxCell id="lqvGJIxWQBwntYFB9ahe-147" value="" style="shape=partialRectangle;connectable=0;fillColor=none;top=0;left=0;bottom=0;right=0;editable=1;overflow=hidden;" parent="lqvGJIxWQBwntYFB9ahe-146" vertex="1"><mxGeometry width="30" height="30" as="geometry"><mxRectangle width="30" height="30" as="alternateBounds"/></mxGeometry></mxCell><mxCell id="lqvGJIxWQBwntYFB9ahe-148" value="reservationTo time NOT NULL" style="shape=partialRectangle;connectable=0;fillColor=none;top=0;left=0;bottom=0;right=0;align=left;spacingLeft=6;overflow=hidden;" parent="lqvGJIxWQBwntYFB9ahe-146" vertex="1"><mxGeometry x="30" width="190.33" height="30" as="geometry"><mxRectangle width="190.33" height="30" as="alternateBounds"/></mxGeometry></mxCell><mxCell id="s86U_DRvaFwwrj0hK_C6-23" value="" style="shape=tableRow;horizontal=0;startSize=0;swimlaneHead=0;swimlaneBody=0;fillColor=none;collapsible=0;dropTarget=0;points=[[0,0.5],[1,0.5]];portConstraint=eastwest;top=0;left=0;right=0;bottom=0;" parent="lqvGJIxWQBwntYFB9ahe-48" vertex="1"><mxGeometry y="210" width="220.33" height="30" as="geometry"/></mxCell><mxCell id="s86U_DRvaFwwrj0hK_C6-24" value="" style="shape=partialRectangle;connectable=0;fillColor=none;top=0;left=0;bottom=0;right=0;editable=1;overflow=hidden;" parent="s86U_DRvaFwwrj0hK_C6-23" vertex="1"><mxGeometry width="30" height="30" as="geometry"><mxRectangle width="30" height="30" as="alternateBounds"/></mxGeometry></mxCell><mxCell id="s86U_DRvaFwwrj0hK_C6-25" value="seriesStart date NOT NULL" style="shape=partialRectangle;connectable=0;fillColor=none;top=0;left=0;bottom=0;right=0;align=left;spacingLeft=6;overflow=hidden;" parent="s86U_DRvaFwwrj0hK_C6-23" vertex="1"><mxGeometry x="30" width="190.33" height="30" as="geometry"><mxRectangle width="190.33" height="30" as="alternateBounds"/></mxGeometry></mxCell><mxCell id="s86U_DRvaFwwrj0hK_C6-20" value="" style="shape=tableRow;horizontal=0;startSize=0;swimlaneHead=0;swimlaneBody=0;fillColor=none;collapsible=0;dropTarget=0;points=[[0,0.5],[1,0.5]];portConstraint=eastwest;top=0;left=0;right=0;bottom=0;" parent="lqvGJIxWQBwntYFB9ahe-48" vertex="1"><mxGeometry y="240" width="220.33" height="30" as="geometry"/></mxCell><mxCell id="s86U_DRvaFwwrj0hK_C6-21" value="" style="shape=partialRectangle;connectable=0;fillColor=none;top=0;left=0;bottom=0;right=0;editable=1;overflow=hidden;" parent="s86U_DRvaFwwrj0hK_C6-20" vertex="1"><mxGeometry width="30" height="30" as="geometry"><mxRectangle width="30" height="30" as="alternateBounds"/></mxGeometry></mxCell><mxCell id="s86U_DRvaFwwrj0hK_C6-22" value="seriesEnd date NOT NULL" style="shape=partialRectangle;connectable=0;fillColor=none;top=0;left=0;bottom=0;right=0;align=left;spacingLeft=6;overflow=hidden;" parent="s86U_DRvaFwwrj0hK_C6-20" vertex="1"><mxGeometry x="30" width="190.33" height="30" as="geometry"><mxRectangle width="190.33" height="30" as="alternateBounds"/></mxGeometry></mxCell><mxCell id="XLRby2MUS3FTOPXArCwn-14" value="" style="shape=tableRow;horizontal=0;startSize=0;swimlaneHead=0;swimlaneBody=0;fillColor=none;collapsible=0;dropTarget=0;points=[[0,0.5],[1,0.5]];portConstraint=eastwest;top=0;left=0;right=0;bottom=0;" parent="lqvGJIxWQBwntYFB9ahe-48" vertex="1"><mxGeometry y="270" width="220.33" height="30" as="geometry"/></mxCell><mxCell id="XLRby2MUS3FTOPXArCwn-15" value="" style="shape=partialRectangle;connectable=0;fillColor=none;top=0;left=0;bottom=0;right=0;editable=1;overflow=hidden;" parent="XLRby2MUS3FTOPXArCwn-14" vertex="1"><mxGeometry width="30" height="30" as="geometry"><mxRectangle width="30" height="30" as="alternateBounds"/></mxGeometry></mxCell><mxCell id="XLRby2MUS3FTOPXArCwn-16" value="intervalWeeks int NOT NULL" style="shape=partialRectangle;connectable=0;fillColor=none;top=0;left=0;bottom=0;right=0;align=left;spacingLeft=6;overflow=hidden;" parent="XLRby2MUS3FTOPXArCwn-14" vertex="1"><mxGeometry x="30" width="190.33" height="30" as="geometry"><mxRectangle width="190.33" height="30" as="alternateBounds"/></mxGeometry></mxCell><mxCell id="XLRby2MUS3FTOPXArCwn-17" value="" style="shape=tableRow;horizontal=0;startSize=0;swimlaneHead=0;swimlaneBody=0;fillColor=none;collapsible=0;dropTarget=0;points=[[0,0.5],[1,0.5]];portConstraint=eastwest;top=0;left=0;right=0;bottom=0;" parent="lqvGJIxWQBwntYFB9ahe-48" vertex="1"><mxGeometry y="300" width="220.33" height="30" as="geometry"/></mxCell><mxCell id="XLRby2MUS3FTOPXArCwn-18" value="" style="shape=partialRectangle;connectable=0;fillColor=none;top=0;left=0;bottom=0;right=0;editable=1;overflow=hidden;" parent="XLRby2MUS3FTOPXArCwn-17" vertex="1"><mxGeometry width="30" height="30" as="geometry"><mxRectangle width="30" height="30" as="alternateBounds"/></mxGeometry></mxCell><mxCell id="XLRby2MUS3FTOPXArCwn-19" value="weekdays char(13) NOT NULL" style="shape=partialRectangle;connectable=0;fillColor=none;top=0;left=0;bottom=0;right=0;align=left;spacingLeft=6;overflow=hidden;" parent="XLRby2MUS3FTOPXArCwn-17" vertex="1"><mxGeometry x="30" width="190.33" height="30" as="geometry"><mxRectangle width="190.33" height="30" as="alternateBounds"/></mxGeometry></mxCell><mxCell id="s86U_DRvaFwwrj0hK_C6-17" value="" style="shape=tableRow;horizontal=0;startSize=0;swimlaneHead=0;swimlaneBody=0;fillColor=none;collapsible=0;dropTarget=0;points=[[0,0.5],[1,0.5]];portConstraint=eastwest;top=0;left=0;right=0;bottom=0;" parent="lqvGJIxWQBwntYFB9ahe-48" vertex="1"><mxGeometry y="330" width="220.33" height="30" as="geometry"/></mxCell><mxCell id="s86U_DRvaFwwrj0hK_C6-18" value="" style="shape=partialRectangle;connectable=0;fillColor=none;top=0;left=0;bottom=0;right=0;editable=1;overflow=hidden;" parent="s86U_DRvaFwwrj0hK_C6-17" vertex="1"><mxGeometry width="30" height="30" as="geometry"><mxRectangle width="30" height="30" as="alternateBounds"/></mxGeometry></mxCell><mxCell id="s86U_DRvaFwwrj0hK_C6-19" value="comment varchar(50) NOT NULL" style="shape=partialRectangle;connectable=0;fillColor=none;top=0;left=0;bottom=0;right=0;align=left;spacingLeft=6;overflow=hidden;" parent="s86U_DRvaFwwrj0hK_C6-17" vertex="1"><mxGeometry x="30" width="190.33" height="30" as="geometry"><mxRectangle width="190.33" height="30" as="alternateBounds"/></mxGeometry></mxCell><mxCell id="lqvGJIxWQBwntYFB9ahe-74" value="picture" style="shape=table;startSize=30;container=1;collapsible=1;childLayout=tableLayout;fixedRows=1;rowLines=0;fontStyle=1;align=center;resizeLast=1;html=1;" parent="1" vertex="1"><mxGeometry x="20" y="280" width="200" height="120" as="geometry"/></mxCell><mxCell id="lqvGJIxWQBwntYFB9ahe-75" value="" style="shape=tableRow;horizontal=0;startSize=0;swimlaneHead=0;swimlaneBody=0;fillColor=none;collapsible=0;dropTarget=0;points=[[0,0.5],[1,0.5]];portConstraint=eastwest;top=0;left=0;right=0;bottom=1;" parent="lqvGJIxWQBwntYFB9ahe-74" vertex="1"><mxGeometry y="30" width="200" height="30" as="geometry"/></mxCell><mxCell id="lqvGJIxWQBwntYFB9ahe-76" value="PK" style="shape=partialRectangle;connectable=0;fillColor=none;top=0;left=0;bottom=0;right=0;fontStyle=1;overflow=hidden;whiteSpace=wrap;html=1;" parent="lqvGJIxWQBwntYFB9ahe-75" vertex="1"><mxGeometry width="30" height="30" as="geometry"><mxRectangle width="30" height="30" as="alternateBounds"/></mxGeometry></mxCell><mxCell id="lqvGJIxWQBwntYFB9ahe-77" value="id bigint NOT NULL" style="shape=partialRectangle;connectable=0;fillColor=none;top=0;left=0;bottom=0;right=0;align=left;spacingLeft=6;fontStyle=5;overflow=hidden;whiteSpace=wrap;html=1;" parent="lqvGJIxWQBwntYFB9ahe-75" vertex="1"><mxGeometry x="30" width="170" height="30" as="geometry"><mxRectangle width="170" height="30" as="alternateBounds"/></mxGeometry></mxCell><mxCell id="lqvGJIxWQBwntYFB9ahe-78" value="" style="shape=tableRow;horizontal=0;startSize=0;swimlaneHead=0;swimlaneBody=0;fillColor=none;collapsible=0;dropTarget=0;points=[[0,0.5],[1,0.5]];portConstraint=eastwest;top=0;left=0;right=0;bottom=0;" parent="lqvGJIxWQBwntYFB9ahe-74" vertex="1"><mxGeometry y="60" width="200" height="30" as="geometry"/></mxCell><mxCell id="lqvGJIxWQBwntYFB9ahe-79" value="FK" style="shape=partialRectangle;connectable=0;fillColor=none;top=0;left=0;bottom=0;right=0;editable=1;overflow=hidden;whiteSpace=wrap;html=1;" parent="lqvGJIxWQBwntYFB9ahe-78" vertex="1"><mxGeometry width="30" height="30" as="geometry"><mxRectangle width="30" height="30" as="alternateBounds"/></mxGeometry></mxCell><mxCell id="lqvGJIxWQBwntYFB9ahe-80" value="rentalUnit_id bigint NOT NULL" style="shape=partialRectangle;connectable=0;fillColor=none;top=0;left=0;bottom=0;right=0;align=left;spacingLeft=6;overflow=hidden;whiteSpace=wrap;html=1;" parent="lqvGJIxWQBwntYFB9ahe-78" vertex="1"><mxGeometry x="30" width="170" height="30" as="geometry"><mxRectangle width="170" height="30" as="alternateBounds"/></mxGeometry></mxCell><mxCell id="lqvGJIxWQBwntYFB9ahe-84" value="" style="shape=tableRow;horizontal=0;startSize=0;swimlaneHead=0;swimlaneBody=0;fillColor=none;collapsible=0;dropTarget=0;points=[[0,0.5],[1,0.5]];portConstraint=eastwest;top=0;left=0;right=0;bottom=0;" parent="lqvGJIxWQBwntYFB9ahe-74" vertex="1"><mxGeometry y="90" width="200" height="30" as="geometry"/></mxCell><mxCell id="lqvGJIxWQBwntYFB9ahe-85" value="" style="shape=partialRectangle;connectable=0;fillColor=none;top=0;left=0;bottom=0;right=0;editable=1;overflow=hidden;whiteSpace=wrap;html=1;" parent="lqvGJIxWQBwntYFB9ahe-84" vertex="1"><mxGeometry width="30" height="30" as="geometry"><mxRectangle width="30" height="30" as="alternateBounds"/></mxGeometry></mxCell><mxCell id="lqvGJIxWQBwntYFB9ahe-86" value="path varchar(250) NOT NULL" style="shape=partialRectangle;connectable=0;fillColor=none;top=0;left=0;bottom=0;right=0;align=left;spacingLeft=6;overflow=hidden;whiteSpace=wrap;html=1;" parent="lqvGJIxWQBwntYFB9ahe-84" vertex="1"><mxGeometry x="30" width="170" height="30" as="geometry"><mxRectangle width="170" height="30" as="alternateBounds"/></mxGeometry></mxCell><mxCell id="lqvGJIxWQBwntYFB9ahe-112" value="" style="edgeStyle=orthogonalEdgeStyle;endArrow=none;startArrow=none;endFill=0;startFill=0;entryX=1;entryY=0.5;entryDx=0;entryDy=0;exitX=0;exitY=0.5;exitDx=0;exitDy=0;" parent="1" source="C-vyLk0tnHw3VtMMgP7b-14" target="lqvGJIxWQBwntYFB9ahe-78" edge="1"><mxGeometry width="100" height="100" relative="1" as="geometry"><mxPoint x="320" y="560" as="sourcePoint"/><mxPoint x="210" y="585" as="targetPoint"/><Array as="points"><mxPoint x="240" y="325"/><mxPoint x="240" y="355"/></Array></mxGeometry></mxCell><mxCell id="lqvGJIxWQBwntYFB9ahe-113" value="m" style="edgeLabel;html=1;align=center;verticalAlign=middle;resizable=0;points=[];" parent="lqvGJIxWQBwntYFB9ahe-112" vertex="1" connectable="0"><mxGeometry x="0.8764" y="4" relative="1" as="geometry"><mxPoint as="offset"/></mxGeometry></mxCell><mxCell id="lqvGJIxWQBwntYFB9ahe-114" value="1" style="edgeLabel;html=1;align=center;verticalAlign=middle;resizable=0;points=[];" parent="lqvGJIxWQBwntYFB9ahe-112" vertex="1" connectable="0"><mxGeometry x="-0.9374" y="2" relative="1" as="geometry"><mxPoint x="-8" y="-7" as="offset"/></mxGeometry></mxCell><mxCell id="lqvGJIxWQBwntYFB9ahe-118" value="" style="edgeStyle=orthogonalEdgeStyle;endArrow=none;startArrow=none;endFill=0;startFill=0;exitX=1;exitY=0.5;exitDx=0;exitDy=0;entryX=1;entryY=0.5;entryDx=0;entryDy=0;" parent="1" source="C-vyLk0tnHw3VtMMgP7b-3" target="lqvGJIxWQBwntYFB9ahe-115" edge="1"><mxGeometry width="100" height="100" relative="1" as="geometry"><mxPoint x="532.0000000000001" y="120" as="sourcePoint"/><mxPoint x="612" y="610" as="targetPoint"/><Array as="points"><mxPoint x="540" y="85"/><mxPoint x="540" y="565"/></Array></mxGeometry></mxCell><mxCell id="lqvGJIxWQBwntYFB9ahe-119" value="m" style="edgeLabel;html=1;align=center;verticalAlign=middle;resizable=0;points=[];" parent="lqvGJIxWQBwntYFB9ahe-118" vertex="1" connectable="0"><mxGeometry x="0.9198" y="-4" relative="1" as="geometry"><mxPoint x="4" y="6" as="offset"/></mxGeometry></mxCell><mxCell id="lqvGJIxWQBwntYFB9ahe-149" value="booking" style="shape=table;startSize=30;container=1;collapsible=1;childLayout=tableLayout;fixedRows=1;rowLines=0;fontStyle=1;align=center;resizeLast=1;" parent="1" vertex="1"><mxGeometry x="1030.44" y="30" width="220.33" height="150" as="geometry"/></mxCell><mxCell id="lqvGJIxWQBwntYFB9ahe-150" value="" style="shape=partialRectangle;collapsible=0;dropTarget=0;pointerEvents=0;fillColor=none;points=[[0,0.5],[1,0.5]];portConstraint=eastwest;top=0;left=0;right=0;bottom=1;" parent="lqvGJIxWQBwntYFB9ahe-149" vertex="1"><mxGeometry y="30" width="220.33" height="30" as="geometry"/></mxCell><mxCell id="lqvGJIxWQBwntYFB9ahe-151" value="PK" style="shape=partialRectangle;overflow=hidden;connectable=0;fillColor=none;top=0;left=0;bottom=0;right=0;fontStyle=1;" parent="lqvGJIxWQBwntYFB9ahe-150" vertex="1"><mxGeometry width="30" height="30" as="geometry"><mxRectangle width="30" height="30" as="alternateBounds"/></mxGeometry></mxCell><mxCell id="lqvGJIxWQBwntYFB9ahe-152" value="id bigint NOT NULL " style="shape=partialRectangle;overflow=hidden;connectable=0;fillColor=none;top=0;left=0;bottom=0;right=0;align=left;spacingLeft=6;fontStyle=5;" parent="lqvGJIxWQBwntYFB9ahe-150" vertex="1"><mxGeometry x="30" width="190.33" height="30" as="geometry"><mxRectangle width="190.33" height="30" as="alternateBounds"/></mxGeometry></mxCell><mxCell id="lqvGJIxWQBwntYFB9ahe-159" value="" style="shape=tableRow;horizontal=0;startSize=0;swimlaneHead=0;swimlaneBody=0;fillColor=none;collapsible=0;dropTarget=0;points=[[0,0.5],[1,0.5]];portConstraint=eastwest;top=0;left=0;right=0;bottom=0;" parent="lqvGJIxWQBwntYFB9ahe-149" vertex="1"><mxGeometry y="60" width="220.33" height="30" as="geometry"/></mxCell><mxCell id="lqvGJIxWQBwntYFB9ahe-160" value="FK" style="shape=partialRectangle;connectable=0;fillColor=none;top=0;left=0;bottom=0;right=0;fontStyle=0;overflow=hidden;whiteSpace=wrap;html=1;" parent="lqvGJIxWQBwntYFB9ahe-159" vertex="1"><mxGeometry width="30" height="30" as="geometry"><mxRectangle width="30" height="30" as="alternateBounds"/></mxGeometry></mxCell><mxCell id="lqvGJIxWQBwntYFB9ahe-161" value="user_id bigint&amp;nbsp;NOT NULL" style="shape=partialRectangle;connectable=0;fillColor=none;top=0;left=0;bottom=0;right=0;align=left;spacingLeft=6;fontStyle=0;overflow=hidden;whiteSpace=wrap;html=1;" parent="lqvGJIxWQBwntYFB9ahe-159" vertex="1"><mxGeometry x="30" width="190.33" height="30" as="geometry"><mxRectangle width="190.33" height="30" as="alternateBounds"/></mxGeometry></mxCell><mxCell id="-pVWN-5g0OcptFUe22VX-104" value="" style="shape=tableRow;horizontal=0;startSize=0;swimlaneHead=0;swimlaneBody=0;fillColor=none;collapsible=0;dropTarget=0;points=[[0,0.5],[1,0.5]];portConstraint=eastwest;top=0;left=0;right=0;bottom=0;" parent="lqvGJIxWQBwntYFB9ahe-149" vertex="1"><mxGeometry y="90" width="220.33" height="30" as="geometry"/></mxCell><mxCell id="-pVWN-5g0OcptFUe22VX-105" value="FK" style="shape=partialRectangle;connectable=0;fillColor=none;top=0;left=0;bottom=0;right=0;editable=1;overflow=hidden;" parent="-pVWN-5g0OcptFUe22VX-104" vertex="1"><mxGeometry width="30" height="30" as="geometry"><mxRectangle width="30" height="30" as="alternateBounds"/></mxGeometry></mxCell><mxCell id="-pVWN-5g0OcptFUe22VX-106" value="payable_amount_id int NOT NULL" style="shape=partialRectangle;connectable=0;fillColor=none;top=0;left=0;bottom=0;right=0;align=left;spacingLeft=6;overflow=hidden;" parent="-pVWN-5g0OcptFUe22VX-104" vertex="1"><mxGeometry x="30" width="190.33" height="30" as="geometry"><mxRectangle width="190.33" height="30" as="alternateBounds"/></mxGeometry></mxCell><mxCell id="TYnw7XijjEmuvCzUd5s6-11" value="" style="shape=tableRow;horizontal=0;startSize=0;swimlaneHead=0;swimlaneBody=0;fillColor=none;collapsible=0;dropTarget=0;points=[[0,0.5],[1,0.5]];portConstraint=eastwest;top=0;left=0;right=0;bottom=0;" parent="lqvGJIxWQBwntYFB9ahe-149" vertex="1"><mxGeometry y="120" width="220.33" height="30" as="geometry"/></mxCell><mxCell id="TYnw7XijjEmuvCzUd5s6-12" value="FK" style="shape=partialRectangle;connectable=0;fillColor=none;top=0;left=0;bottom=0;right=0;editable=1;overflow=hidden;" parent="TYnw7XijjEmuvCzUd5s6-11" vertex="1"><mxGeometry width="30" height="30" as="geometry"><mxRectangle width="30" height="30" as="alternateBounds"/></mxGeometry></mxCell><mxCell id="TYnw7XijjEmuvCzUd5s6-13" value="payment_id bigint NOT NULL" style="shape=partialRectangle;connectable=0;fillColor=none;top=0;left=0;bottom=0;right=0;align=left;spacingLeft=6;overflow=hidden;" parent="TYnw7XijjEmuvCzUd5s6-11" vertex="1"><mxGeometry x="30" width="190.33" height="30" as="geometry"><mxRectangle width="190.33" height="30" as="alternateBounds"/></mxGeometry></mxCell><mxCell id="lqvGJIxWQBwntYFB9ahe-162" value="user" style="shape=table;startSize=30;container=1;collapsible=1;childLayout=tableLayout;fixedRows=1;rowLines=0;fontStyle=1;align=center;resizeLast=1;" parent="1" vertex="1"><mxGeometry x="670" y="40" width="220" height="150" as="geometry"/></mxCell><mxCell id="lqvGJIxWQBwntYFB9ahe-163" value="" style="shape=partialRectangle;collapsible=0;dropTarget=0;pointerEvents=0;fillColor=none;points=[[0,0.5],[1,0.5]];portConstraint=eastwest;top=0;left=0;right=0;bottom=1;" parent="lqvGJIxWQBwntYFB9ahe-162" vertex="1"><mxGeometry y="30" width="220" height="30" as="geometry"/></mxCell><mxCell id="lqvGJIxWQBwntYFB9ahe-164" value="PK" style="shape=partialRectangle;overflow=hidden;connectable=0;fillColor=none;top=0;left=0;bottom=0;right=0;fontStyle=1;" parent="lqvGJIxWQBwntYFB9ahe-163" vertex="1"><mxGeometry width="30" height="30" as="geometry"><mxRectangle width="30" height="30" as="alternateBounds"/></mxGeometry></mxCell><mxCell id="lqvGJIxWQBwntYFB9ahe-165" value="id bigint NOT NULL " style="shape=partialRectangle;overflow=hidden;connectable=0;fillColor=none;top=0;left=0;bottom=0;right=0;align=left;spacingLeft=6;fontStyle=5;" parent="lqvGJIxWQBwntYFB9ahe-163" vertex="1"><mxGeometry x="30" width="190" height="30" as="geometry"><mxRectangle width="190" height="30" as="alternateBounds"/></mxGeometry></mxCell><mxCell id="lqvGJIxWQBwntYFB9ahe-166" value="" style="shape=partialRectangle;collapsible=0;dropTarget=0;pointerEvents=0;fillColor=none;points=[[0,0.5],[1,0.5]];portConstraint=eastwest;top=0;left=0;right=0;bottom=0;" parent="lqvGJIxWQBwntYFB9ahe-162" vertex="1"><mxGeometry y="60" width="220" height="30" as="geometry"/></mxCell><mxCell id="lqvGJIxWQBwntYFB9ahe-167" value="" style="shape=partialRectangle;overflow=hidden;connectable=0;fillColor=none;top=0;left=0;bottom=0;right=0;" parent="lqvGJIxWQBwntYFB9ahe-166" vertex="1"><mxGeometry width="30" height="30" as="geometry"><mxRectangle width="30" height="30" as="alternateBounds"/></mxGeometry></mxCell><mxCell id="lqvGJIxWQBwntYFB9ahe-168" value="password varchar(50) NOT NULL" style="shape=partialRectangle;overflow=hidden;connectable=0;fillColor=none;top=0;left=0;bottom=0;right=0;align=left;spacingLeft=6;" parent="lqvGJIxWQBwntYFB9ahe-166" vertex="1"><mxGeometry x="30" width="190" height="30" as="geometry"><mxRectangle width="190" height="30" as="alternateBounds"/></mxGeometry></mxCell><mxCell id="-pVWN-5g0OcptFUe22VX-27" value="" style="shape=tableRow;horizontal=0;startSize=0;swimlaneHead=0;swimlaneBody=0;fillColor=none;collapsible=0;dropTarget=0;points=[[0,0.5],[1,0.5]];portConstraint=eastwest;top=0;left=0;right=0;bottom=0;" parent="lqvGJIxWQBwntYFB9ahe-162" vertex="1"><mxGeometry y="90" width="220" height="30" as="geometry"/></mxCell><mxCell id="-pVWN-5g0OcptFUe22VX-28" value="" style="shape=partialRectangle;connectable=0;fillColor=none;top=0;left=0;bottom=0;right=0;editable=1;overflow=hidden;" parent="-pVWN-5g0OcptFUe22VX-27" vertex="1"><mxGeometry width="30" height="30" as="geometry"><mxRectangle width="30" height="30" as="alternateBounds"/></mxGeometry></mxCell><mxCell id="-pVWN-5g0OcptFUe22VX-29" value="role varchar(50) NOT NULL" style="shape=partialRectangle;connectable=0;fillColor=none;top=0;left=0;bottom=0;right=0;align=left;spacingLeft=6;overflow=hidden;" parent="-pVWN-5g0OcptFUe22VX-27" vertex="1"><mxGeometry x="30" width="190" height="30" as="geometry"><mxRectangle width="190" height="30" as="alternateBounds"/></mxGeometry></mxCell><mxCell id="lqvGJIxWQBwntYFB9ahe-172" value="" style="shape=tableRow;horizontal=0;startSize=0;swimlaneHead=0;swimlaneBody=0;fillColor=none;collapsible=0;dropTarget=0;points=[[0,0.5],[1,0.5]];portConstraint=eastwest;top=0;left=0;right=0;bottom=0;" parent="lqvGJIxWQBwntYFB9ahe-162" vertex="1"><mxGeometry y="120" width="220" height="30" as="geometry"/></mxCell><mxCell id="lqvGJIxWQBwntYFB9ahe-173" value="FK" style="shape=partialRectangle;connectable=0;fillColor=none;top=0;left=0;bottom=0;right=0;fontStyle=0;overflow=hidden;whiteSpace=wrap;html=1;" parent="lqvGJIxWQBwntYFB9ahe-172" vertex="1"><mxGeometry width="30" height="30" as="geometry"><mxRectangle width="30" height="30" as="alternateBounds"/></mxGeometry></mxCell><mxCell id="lqvGJIxWQBwntYFB9ahe-174" value="person_id bigint&amp;nbsp;NOT NULL" style="shape=partialRectangle;connectable=0;fillColor=none;top=0;left=0;bottom=0;right=0;align=left;spacingLeft=6;fontStyle=0;overflow=hidden;whiteSpace=wrap;html=1;" parent="lqvGJIxWQBwntYFB9ahe-172" vertex="1"><mxGeometry x="30" width="190" height="30" as="geometry"><mxRectangle width="190" height="30" as="alternateBounds"/></mxGeometry></mxCell><mxCell id="lqvGJIxWQBwntYFB9ahe-175" value="" style="edgeStyle=orthogonalEdgeStyle;endArrow=none;startArrow=none;endFill=0;startFill=0;entryX=0;entryY=0.5;entryDx=0;entryDy=0;exitX=1;exitY=0.5;exitDx=0;exitDy=0;" parent="1" source="C-vyLk0tnHw3VtMMgP7b-3" target="lqvGJIxWQBwntYFB9ahe-172" edge="1"><mxGeometry width="100" height="100" relative="1" as="geometry"><mxPoint x="550" y="60" as="sourcePoint"/><mxPoint x="661.67" y="140" as="targetPoint"/><Array as="points"><mxPoint x="610" y="85"/><mxPoint x="610" y="175"/></Array></mxGeometry></mxCell><mxCell id="lqvGJIxWQBwntYFB9ahe-176" value="1" style="edgeLabel;html=1;align=center;verticalAlign=middle;resizable=0;points=[];" parent="lqvGJIxWQBwntYFB9ahe-175" vertex="1" connectable="0"><mxGeometry x="0.9198" y="-4" relative="1" as="geometry"><mxPoint as="offset"/></mxGeometry></mxCell><mxCell id="lqvGJIxWQBwntYFB9ahe-179" value="" style="edgeStyle=orthogonalEdgeStyle;endArrow=none;startArrow=none;endFill=0;startFill=0;exitX=0;exitY=0.5;exitDx=0;exitDy=0;entryX=0;entryY=0.5;entryDx=0;entryDy=0;" parent="1" source="lqvGJIxWQBwntYFB9ahe-150" target="TYnw7XijjEmuvCzUd5s6-1" edge="1"><mxGeometry width="100" height="100" relative="1" as="geometry"><mxPoint x="619.67" y="275" as="sourcePoint"/><mxPoint x="620" y="640" as="targetPoint"/><Array as="points"><mxPoint x="960" y="75"/><mxPoint x="960" y="400"/><mxPoint x="760" y="400"/><mxPoint x="760" y="515"/></Array></mxGeometry></mxCell><mxCell id="lqvGJIxWQBwntYFB9ahe-180" value="m" style="edgeLabel;html=1;align=center;verticalAlign=middle;resizable=0;points=[];" parent="lqvGJIxWQBwntYFB9ahe-179" vertex="1" connectable="0"><mxGeometry x="0.8764" y="4" relative="1" as="geometry"><mxPoint x="-4" y="1" as="offset"/></mxGeometry></mxCell><mxCell id="KWCFp4YWC56R9dXeTdvr-1" value="1" style="edgeLabel;html=1;align=center;verticalAlign=middle;resizable=0;points=[];" parent="lqvGJIxWQBwntYFB9ahe-179" vertex="1" connectable="0"><mxGeometry x="-0.708" y="2" relative="1" as="geometry"><mxPoint x="10" y="-26" as="offset"/></mxGeometry></mxCell><mxCell id="lqvGJIxWQBwntYFB9ahe-188" value="" style="edgeStyle=orthogonalEdgeStyle;endArrow=none;startArrow=none;endFill=0;startFill=0;exitX=1;exitY=0.5;exitDx=0;exitDy=0;entryX=0;entryY=0.5;entryDx=0;entryDy=0;" parent="1" source="lqvGJIxWQBwntYFB9ahe-32" target="lqvGJIxWQBwntYFB9ahe-185" edge="1"><mxGeometry width="100" height="100" relative="1" as="geometry"><mxPoint x="350" y="355" as="sourcePoint"/><mxPoint x="280" y="595" as="targetPoint"/><Array as="points"><mxPoint x="280" y="85"/><mxPoint x="280" y="535"/></Array></mxGeometry></mxCell><mxCell id="lqvGJIxWQBwntYFB9ahe-189" value="m" style="edgeLabel;html=1;align=center;verticalAlign=middle;resizable=0;points=[];" parent="lqvGJIxWQBwntYFB9ahe-188" vertex="1" connectable="0"><mxGeometry x="0.8764" y="4" relative="1" as="geometry"><mxPoint as="offset"/></mxGeometry></mxCell><mxCell id="lqvGJIxWQBwntYFB9ahe-190" value="1" style="edgeLabel;html=1;align=center;verticalAlign=middle;resizable=0;points=[];" parent="lqvGJIxWQBwntYFB9ahe-188" vertex="1" connectable="0"><mxGeometry x="-0.9374" y="2" relative="1" as="geometry"><mxPoint x="-7" y="7" as="offset"/></mxGeometry></mxCell><mxCell id="lqvGJIxWQBwntYFB9ahe-210" value="inventory" style="shape=table;startSize=30;container=1;collapsible=1;childLayout=tableLayout;fixedRows=1;rowLines=0;fontStyle=1;align=center;resizeLast=1;html=1;" parent="1" vertex="1"><mxGeometry x="20" y="420" width="200" height="150" as="geometry"/></mxCell><mxCell id="lqvGJIxWQBwntYFB9ahe-211" value="" style="shape=tableRow;horizontal=0;startSize=0;swimlaneHead=0;swimlaneBody=0;fillColor=none;collapsible=0;dropTarget=0;points=[[0,0.5],[1,0.5]];portConstraint=eastwest;top=0;left=0;right=0;bottom=1;" parent="lqvGJIxWQBwntYFB9ahe-210" vertex="1"><mxGeometry y="30" width="200" height="30" as="geometry"/></mxCell><mxCell id="lqvGJIxWQBwntYFB9ahe-212" value="PK" style="shape=partialRectangle;connectable=0;fillColor=none;top=0;left=0;bottom=0;right=0;fontStyle=1;overflow=hidden;whiteSpace=wrap;html=1;" parent="lqvGJIxWQBwntYFB9ahe-211" vertex="1"><mxGeometry width="30" height="30" as="geometry"><mxRectangle width="30" height="30" as="alternateBounds"/></mxGeometry></mxCell><mxCell id="lqvGJIxWQBwntYFB9ahe-213" value="id bigint NOT NULL" style="shape=partialRectangle;connectable=0;fillColor=none;top=0;left=0;bottom=0;right=0;align=left;spacingLeft=6;fontStyle=5;overflow=hidden;whiteSpace=wrap;html=1;" parent="lqvGJIxWQBwntYFB9ahe-211" vertex="1"><mxGeometry x="30" width="170" height="30" as="geometry"><mxRectangle width="170" height="30" as="alternateBounds"/></mxGeometry></mxCell><mxCell id="lqvGJIxWQBwntYFB9ahe-214" value="" style="shape=tableRow;horizontal=0;startSize=0;swimlaneHead=0;swimlaneBody=0;fillColor=none;collapsible=0;dropTarget=0;points=[[0,0.5],[1,0.5]];portConstraint=eastwest;top=0;left=0;right=0;bottom=0;" parent="lqvGJIxWQBwntYFB9ahe-210" vertex="1"><mxGeometry y="60" width="200" height="30" as="geometry"/></mxCell><mxCell id="lqvGJIxWQBwntYFB9ahe-215" value="FK" style="shape=partialRectangle;connectable=0;fillColor=none;top=0;left=0;bottom=0;right=0;editable=1;overflow=hidden;whiteSpace=wrap;html=1;" parent="lqvGJIxWQBwntYFB9ahe-214" vertex="1"><mxGeometry width="30" height="30" as="geometry"><mxRectangle width="30" height="30" as="alternateBounds"/></mxGeometry></mxCell><mxCell id="lqvGJIxWQBwntYFB9ahe-216" value="rentalUnit_id bigint NOT NULL" style="shape=partialRectangle;connectable=0;fillColor=none;top=0;left=0;bottom=0;right=0;align=left;spacingLeft=6;overflow=hidden;whiteSpace=wrap;html=1;" parent="lqvGJIxWQBwntYFB9ahe-214" vertex="1"><mxGeometry x="30" width="170" height="30" as="geometry"><mxRectangle width="170" height="30" as="alternateBounds"/></mxGeometry></mxCell><mxCell id="lqvGJIxWQBwntYFB9ahe-217" value="" style="shape=tableRow;horizontal=0;startSize=0;swimlaneHead=0;swimlaneBody=0;fillColor=none;collapsible=0;dropTarget=0;points=[[0,0.5],[1,0.5]];portConstraint=eastwest;top=0;left=0;right=0;bottom=0;" parent="lqvGJIxWQBwntYFB9ahe-210" vertex="1"><mxGeometry y="90" width="200" height="30" as="geometry"/></mxCell><mxCell id="lqvGJIxWQBwntYFB9ahe-218" value="" style="shape=partialRectangle;connectable=0;fillColor=none;top=0;left=0;bottom=0;right=0;editable=1;overflow=hidden;whiteSpace=wrap;html=1;" parent="lqvGJIxWQBwntYFB9ahe-217" vertex="1"><mxGeometry width="30" height="30" as="geometry"><mxRectangle width="30" height="30" as="alternateBounds"/></mxGeometry></mxCell><mxCell id="lqvGJIxWQBwntYFB9ahe-219" value="name varchar(50) NOT NULL" style="shape=partialRectangle;connectable=0;fillColor=none;top=0;left=0;bottom=0;right=0;align=left;spacingLeft=6;overflow=hidden;whiteSpace=wrap;html=1;" parent="lqvGJIxWQBwntYFB9ahe-217" vertex="1"><mxGeometry x="30" width="170" height="30" as="geometry"><mxRectangle width="170" height="30" as="alternateBounds"/></mxGeometry></mxCell><mxCell id="lqvGJIxWQBwntYFB9ahe-233" value="" style="shape=tableRow;horizontal=0;startSize=0;swimlaneHead=0;swimlaneBody=0;fillColor=none;collapsible=0;dropTarget=0;points=[[0,0.5],[1,0.5]];portConstraint=eastwest;top=0;left=0;right=0;bottom=0;" parent="lqvGJIxWQBwntYFB9ahe-210" vertex="1"><mxGeometry y="120" width="200" height="30" as="geometry"/></mxCell><mxCell id="lqvGJIxWQBwntYFB9ahe-234" value="" style="shape=partialRectangle;connectable=0;fillColor=none;top=0;left=0;bottom=0;right=0;editable=1;overflow=hidden;" parent="lqvGJIxWQBwntYFB9ahe-233" vertex="1"><mxGeometry width="30" height="30" as="geometry"><mxRectangle width="30" height="30" as="alternateBounds"/></mxGeometry></mxCell><mxCell id="lqvGJIxWQBwntYFB9ahe-235" value="quantity int NOT NULL" style="shape=partialRectangle;connectable=0;fillColor=none;top=0;left=0;bottom=0;right=0;align=left;spacingLeft=6;overflow=hidden;" parent="lqvGJIxWQBwntYFB9ahe-233" vertex="1"><mxGeometry x="30" width="170" height="30" as="geometry"><mxRectangle width="170" height="30" as="alternateBounds"/></mxGeometry></mxCell><mxCell id="lqvGJIxWQBwntYFB9ahe-230" value="" style="edgeStyle=orthogonalEdgeStyle;endArrow=none;startArrow=none;endFill=0;startFill=0;entryX=1;entryY=0.5;entryDx=0;entryDy=0;exitX=0;exitY=0.5;exitDx=0;exitDy=0;" parent="1" source="C-vyLk0tnHw3VtMMgP7b-14" target="lqvGJIxWQBwntYFB9ahe-214" edge="1"><mxGeometry width="100" height="100" relative="1" as="geometry"><mxPoint x="270" y="570" as="sourcePoint"/><mxPoint x="570" y="485" as="targetPoint"/><Array as="points"><mxPoint x="240" y="325"/><mxPoint x="240" y="495"/></Array></mxGeometry></mxCell><mxCell id="lqvGJIxWQBwntYFB9ahe-231" value="m" style="edgeLabel;html=1;align=center;verticalAlign=middle;resizable=0;points=[];" parent="lqvGJIxWQBwntYFB9ahe-230" vertex="1" connectable="0"><mxGeometry x="0.9198" y="-4" relative="1" as="geometry"><mxPoint as="offset"/></mxGeometry></mxCell><mxCell id="lqvGJIxWQBwntYFB9ahe-236" value="infrastructure" style="shape=table;startSize=30;container=1;collapsible=1;childLayout=tableLayout;fixedRows=1;rowLines=0;fontStyle=1;align=center;resizeLast=1;html=1;" parent="1" vertex="1"><mxGeometry x="20" y="600" width="200" height="150" as="geometry"/></mxCell><mxCell id="lqvGJIxWQBwntYFB9ahe-237" value="" style="shape=tableRow;horizontal=0;startSize=0;swimlaneHead=0;swimlaneBody=0;fillColor=none;collapsible=0;dropTarget=0;points=[[0,0.5],[1,0.5]];portConstraint=eastwest;top=0;left=0;right=0;bottom=1;" parent="lqvGJIxWQBwntYFB9ahe-236" vertex="1"><mxGeometry y="30" width="200" height="30" as="geometry"/></mxCell><mxCell id="lqvGJIxWQBwntYFB9ahe-238" value="PK" style="shape=partialRectangle;connectable=0;fillColor=none;top=0;left=0;bottom=0;right=0;fontStyle=1;overflow=hidden;whiteSpace=wrap;html=1;" parent="lqvGJIxWQBwntYFB9ahe-237" vertex="1"><mxGeometry width="30" height="30" as="geometry"><mxRectangle width="30" height="30" as="alternateBounds"/></mxGeometry></mxCell><mxCell id="lqvGJIxWQBwntYFB9ahe-239" value="id bigint NOT NULL" style="shape=partialRectangle;connectable=0;fillColor=none;top=0;left=0;bottom=0;right=0;align=left;spacingLeft=6;fontStyle=5;overflow=hidden;whiteSpace=wrap;html=1;" parent="lqvGJIxWQBwntYFB9ahe-237" vertex="1"><mxGeometry x="30" width="170" height="30" as="geometry"><mxRectangle width="170" height="30" as="alternateBounds"/></mxGeometry></mxCell><mxCell id="lqvGJIxWQBwntYFB9ahe-240" value="" style="shape=tableRow;horizontal=0;startSize=0;swimlaneHead=0;swimlaneBody=0;fillColor=none;collapsible=0;dropTarget=0;points=[[0,0.5],[1,0.5]];portConstraint=eastwest;top=0;left=0;right=0;bottom=0;" parent="lqvGJIxWQBwntYFB9ahe-236" vertex="1"><mxGeometry y="60" width="200" height="30" as="geometry"/></mxCell><mxCell id="lqvGJIxWQBwntYFB9ahe-241" value="FK" style="shape=partialRectangle;connectable=0;fillColor=none;top=0;left=0;bottom=0;right=0;editable=1;overflow=hidden;whiteSpace=wrap;html=1;" parent="lqvGJIxWQBwntYFB9ahe-240" vertex="1"><mxGeometry width="30" height="30" as="geometry"><mxRectangle width="30" height="30" as="alternateBounds"/></mxGeometry></mxCell><mxCell id="lqvGJIxWQBwntYFB9ahe-242" value="rentalUnit_id bigint NOT NULL" style="shape=partialRectangle;connectable=0;fillColor=none;top=0;left=0;bottom=0;right=0;align=left;spacingLeft=6;overflow=hidden;whiteSpace=wrap;html=1;" parent="lqvGJIxWQBwntYFB9ahe-240" vertex="1"><mxGeometry x="30" width="170" height="30" as="geometry"><mxRectangle width="170" height="30" as="alternateBounds"/></mxGeometry></mxCell><mxCell id="lqvGJIxWQBwntYFB9ahe-243" value="" style="shape=tableRow;horizontal=0;startSize=0;swimlaneHead=0;swimlaneBody=0;fillColor=none;collapsible=0;dropTarget=0;points=[[0,0.5],[1,0.5]];portConstraint=eastwest;top=0;left=0;right=0;bottom=0;" parent="lqvGJIxWQBwntYFB9ahe-236" vertex="1"><mxGeometry y="90" width="200" height="30" as="geometry"/></mxCell><mxCell id="lqvGJIxWQBwntYFB9ahe-244" value="" style="shape=partialRectangle;connectable=0;fillColor=none;top=0;left=0;bottom=0;right=0;editable=1;overflow=hidden;whiteSpace=wrap;html=1;" parent="lqvGJIxWQBwntYFB9ahe-243" vertex="1"><mxGeometry width="30" height="30" as="geometry"><mxRectangle width="30" height="30" as="alternateBounds"/></mxGeometry></mxCell><mxCell id="lqvGJIxWQBwntYFB9ahe-245" value="name varchar(50) NOT NULL" style="shape=partialRectangle;connectable=0;fillColor=none;top=0;left=0;bottom=0;right=0;align=left;spacingLeft=6;overflow=hidden;whiteSpace=wrap;html=1;" parent="lqvGJIxWQBwntYFB9ahe-243" vertex="1"><mxGeometry x="30" width="170" height="30" as="geometry"><mxRectangle width="170" height="30" as="alternateBounds"/></mxGeometry></mxCell><mxCell id="lqvGJIxWQBwntYFB9ahe-246" value="" style="shape=tableRow;horizontal=0;startSize=0;swimlaneHead=0;swimlaneBody=0;fillColor=none;collapsible=0;dropTarget=0;points=[[0,0.5],[1,0.5]];portConstraint=eastwest;top=0;left=0;right=0;bottom=0;" parent="lqvGJIxWQBwntYFB9ahe-236" vertex="1"><mxGeometry y="120" width="200" height="30" as="geometry"/></mxCell><mxCell id="lqvGJIxWQBwntYFB9ahe-247" value="" style="shape=partialRectangle;connectable=0;fillColor=none;top=0;left=0;bottom=0;right=0;editable=1;overflow=hidden;" parent="lqvGJIxWQBwntYFB9ahe-246" vertex="1"><mxGeometry width="30" height="30" as="geometry"><mxRectangle width="30" height="30" as="alternateBounds"/></mxGeometry></mxCell><mxCell id="lqvGJIxWQBwntYFB9ahe-248" value="quantity int NOT NULL" style="shape=partialRectangle;connectable=0;fillColor=none;top=0;left=0;bottom=0;right=0;align=left;spacingLeft=6;overflow=hidden;" parent="lqvGJIxWQBwntYFB9ahe-246" vertex="1"><mxGeometry x="30" width="170" height="30" as="geometry"><mxRectangle width="170" height="30" as="alternateBounds"/></mxGeometry></mxCell><mxCell id="lqvGJIxWQBwntYFB9ahe-249" value="" style="edgeStyle=orthogonalEdgeStyle;endArrow=none;startArrow=none;endFill=0;startFill=0;entryX=1;entryY=0.5;entryDx=0;entryDy=0;exitX=0;exitY=0.5;exitDx=0;exitDy=0;" parent="1" source="C-vyLk0tnHw3VtMMgP7b-14" target="lqvGJIxWQBwntYFB9ahe-240" edge="1"><mxGeometry width="100" height="100" relative="1" as="geometry"><mxPoint x="290" y="510" as="sourcePoint"/><mxPoint x="670" y="285" as="targetPoint"/><Array as="points"><mxPoint x="240" y="325"/><mxPoint x="240" y="675"/></Array></mxGeometry></mxCell><mxCell id="lqvGJIxWQBwntYFB9ahe-250" value="m" style="edgeLabel;html=1;align=center;verticalAlign=middle;resizable=0;points=[];" parent="lqvGJIxWQBwntYFB9ahe-249" vertex="1" connectable="0"><mxGeometry x="0.9198" y="-4" relative="1" as="geometry"><mxPoint as="offset"/></mxGeometry></mxCell><mxCell id="lqvGJIxWQBwntYFB9ahe-255" value="" style="edgeStyle=orthogonalEdgeStyle;endArrow=none;startArrow=none;endFill=0;startFill=0;entryX=1;entryY=0.5;entryDx=0;entryDy=0;exitX=0;exitY=0.5;exitDx=0;exitDy=0;" parent="1" source="lqvGJIxWQBwntYFB9ahe-133" target="C-vyLk0tnHw3VtMMgP7b-14" edge="1"><mxGeometry width="100" height="100" relative="1" as="geometry"><mxPoint x="311.67" y="290" as="sourcePoint"/><mxPoint x="311.67" y="490" as="targetPoint"/><Array as="points"><mxPoint x="580" y="575"/><mxPoint x="580" y="325"/></Array></mxGeometry></mxCell><mxCell id="lqvGJIxWQBwntYFB9ahe-256" value="1" style="edgeLabel;html=1;align=center;verticalAlign=middle;resizable=0;points=[];" parent="lqvGJIxWQBwntYFB9ahe-255" vertex="1" connectable="0"><mxGeometry x="0.8764" y="4" relative="1" as="geometry"><mxPoint x="-23" y="1" as="offset"/></mxGeometry></mxCell><mxCell id="lqvGJIxWQBwntYFB9ahe-257" value="m" style="edgeLabel;html=1;align=center;verticalAlign=middle;resizable=0;points=[];" parent="lqvGJIxWQBwntYFB9ahe-255" vertex="1" connectable="0"><mxGeometry x="-0.9374" y="2" relative="1" as="geometry"><mxPoint x="6" y="-7" as="offset"/></mxGeometry></mxCell><mxCell id="-pVWN-5g0OcptFUe22VX-34" value="" style="edgeStyle=orthogonalEdgeStyle;endArrow=none;startArrow=none;endFill=0;startFill=0;entryX=1;entryY=0.5;entryDx=0;entryDy=0;exitX=1;exitY=0.5;exitDx=0;exitDy=0;" parent="1" source="-pVWN-5g0OcptFUe22VX-30" target="C-vyLk0tnHw3VtMMgP7b-3" edge="1"><mxGeometry width="100" height="100" relative="1" as="geometry"><mxPoint x="571.67" y="340" as="sourcePoint"/><mxPoint x="651.67" y="185" as="targetPoint"/><Array as="points"><mxPoint x="640" y="505"/><mxPoint x="640" y="85"/></Array></mxGeometry></mxCell><mxCell id="-pVWN-5g0OcptFUe22VX-36" value="m" style="edgeLabel;html=1;align=center;verticalAlign=middle;resizable=0;points=[];" parent="-pVWN-5g0OcptFUe22VX-34" vertex="1" connectable="0"><mxGeometry x="-0.9477" y="1" relative="1" as="geometry"><mxPoint x="-7" y="6" as="offset"/></mxGeometry></mxCell><mxCell id="-pVWN-5g0OcptFUe22VX-52" value="" style="edgeStyle=orthogonalEdgeStyle;endArrow=none;startArrow=none;endFill=0;startFill=0;entryX=1;entryY=0.5;entryDx=0;entryDy=0;exitX=0;exitY=0.5;exitDx=0;exitDy=0;" parent="1" source="-pVWN-5g0OcptFUe22VX-49" target="C-vyLk0tnHw3VtMMgP7b-3" edge="1"><mxGeometry width="100" height="100" relative="1" as="geometry"><mxPoint x="551.67" y="535" as="sourcePoint"/><mxPoint x="651.67" y="95" as="targetPoint"/><Array as="points"><mxPoint x="610" y="545"/><mxPoint x="610" y="85"/></Array></mxGeometry></mxCell><mxCell id="-pVWN-5g0OcptFUe22VX-53" value="1" style="edgeLabel;html=1;align=center;verticalAlign=middle;resizable=0;points=[];" parent="-pVWN-5g0OcptFUe22VX-52" vertex="1" connectable="0"><mxGeometry x="0.9198" y="-4" relative="1" as="geometry"><mxPoint x="-21" y="-1" as="offset"/></mxGeometry></mxCell><mxCell id="-pVWN-5g0OcptFUe22VX-54" value="m" style="edgeLabel;html=1;align=center;verticalAlign=middle;resizable=0;points=[];" parent="-pVWN-5g0OcptFUe22VX-52" vertex="1" connectable="0"><mxGeometry x="-0.9477" y="1" relative="1" as="geometry"><mxPoint x="-2" y="-6" as="offset"/></mxGeometry></mxCell><mxCell id="-pVWN-5g0OcptFUe22VX-85" value="amount" style="shape=table;startSize=30;container=1;collapsible=1;childLayout=tableLayout;fixedRows=1;rowLines=0;fontStyle=1;align=center;resizeLast=1;" parent="1" vertex="1"><mxGeometry x="1030.44" y="200" width="198.33" height="120" as="geometry"/></mxCell><mxCell id="-pVWN-5g0OcptFUe22VX-86" value="" style="shape=partialRectangle;collapsible=0;dropTarget=0;pointerEvents=0;fillColor=none;points=[[0,0.5],[1,0.5]];portConstraint=eastwest;top=0;left=0;right=0;bottom=1;" parent="-pVWN-5g0OcptFUe22VX-85" vertex="1"><mxGeometry y="30" width="198.33" height="30" as="geometry"/></mxCell><mxCell id="-pVWN-5g0OcptFUe22VX-87" value="PK" style="shape=partialRectangle;overflow=hidden;connectable=0;fillColor=none;top=0;left=0;bottom=0;right=0;fontStyle=1;" parent="-pVWN-5g0OcptFUe22VX-86" vertex="1"><mxGeometry width="30" height="30" as="geometry"><mxRectangle width="30" height="30" as="alternateBounds"/></mxGeometry></mxCell><mxCell id="-pVWN-5g0OcptFUe22VX-88" value="id bigint NOT NULL " style="shape=partialRectangle;overflow=hidden;connectable=0;fillColor=none;top=0;left=0;bottom=0;right=0;align=left;spacingLeft=6;fontStyle=5;" parent="-pVWN-5g0OcptFUe22VX-86" vertex="1"><mxGeometry x="30" width="168.33" height="30" as="geometry"><mxRectangle width="168.33" height="30" as="alternateBounds"/></mxGeometry></mxCell><mxCell id="-pVWN-5g0OcptFUe22VX-92" value="" style="shape=tableRow;horizontal=0;startSize=0;swimlaneHead=0;swimlaneBody=0;fillColor=none;collapsible=0;dropTarget=0;points=[[0,0.5],[1,0.5]];portConstraint=eastwest;top=0;left=0;right=0;bottom=0;" parent="-pVWN-5g0OcptFUe22VX-85" vertex="1"><mxGeometry y="60" width="198.33" height="30" as="geometry"/></mxCell><mxCell id="-pVWN-5g0OcptFUe22VX-93" value="" style="shape=partialRectangle;connectable=0;fillColor=none;top=0;left=0;bottom=0;right=0;fontStyle=0;overflow=hidden;whiteSpace=wrap;html=1;" parent="-pVWN-5g0OcptFUe22VX-92" vertex="1"><mxGeometry width="30" height="30" as="geometry"><mxRectangle width="30" height="30" as="alternateBounds"/></mxGeometry></mxCell><mxCell id="-pVWN-5g0OcptFUe22VX-94" value="value decimal NOT NULL" style="shape=partialRectangle;connectable=0;fillColor=none;top=0;left=0;bottom=0;right=0;align=left;spacingLeft=6;fontStyle=0;overflow=hidden;whiteSpace=wrap;html=1;" parent="-pVWN-5g0OcptFUe22VX-92" vertex="1"><mxGeometry x="30" width="168.33" height="30" as="geometry"><mxRectangle width="168.33" height="30" as="alternateBounds"/></mxGeometry></mxCell><mxCell id="-pVWN-5g0OcptFUe22VX-95" value="" style="shape=tableRow;horizontal=0;startSize=0;swimlaneHead=0;swimlaneBody=0;fillColor=none;collapsible=0;dropTarget=0;points=[[0,0.5],[1,0.5]];portConstraint=eastwest;top=0;left=0;right=0;bottom=0;" parent="-pVWN-5g0OcptFUe22VX-85" vertex="1"><mxGeometry y="90" width="198.33" height="30" as="geometry"/></mxCell><mxCell id="-pVWN-5g0OcptFUe22VX-96" value="" style="shape=partialRectangle;connectable=0;fillColor=none;top=0;left=0;bottom=0;right=0;editable=1;overflow=hidden;" parent="-pVWN-5g0OcptFUe22VX-95" vertex="1"><mxGeometry width="30" height="30" as="geometry"><mxRectangle width="30" height="30" as="alternateBounds"/></mxGeometry></mxCell><mxCell id="-pVWN-5g0OcptFUe22VX-97" value="currency varchar(3) NOT NULL" style="shape=partialRectangle;connectable=0;fillColor=none;top=0;left=0;bottom=0;right=0;align=left;spacingLeft=6;overflow=hidden;" parent="-pVWN-5g0OcptFUe22VX-95" vertex="1"><mxGeometry x="30" width="168.33" height="30" as="geometry"><mxRectangle width="168.33" height="30" as="alternateBounds"/></mxGeometry></mxCell><mxCell id="-pVWN-5g0OcptFUe22VX-107" value="" style="edgeStyle=entityRelationEdgeStyle;endArrow=none;startArrow=none;endFill=0;startFill=0;" parent="1" source="-pVWN-5g0OcptFUe22VX-86" target="-pVWN-5g0OcptFUe22VX-104" edge="1"><mxGeometry width="100" height="100" relative="1" as="geometry"><mxPoint x="1098.44" y="180" as="sourcePoint"/><mxPoint x="1020.1099999999999" y="95" as="targetPoint"/></mxGeometry></mxCell><mxCell id="-pVWN-5g0OcptFUe22VX-108" value="1" style="edgeLabel;html=1;align=center;verticalAlign=middle;resizable=0;points=[];" parent="-pVWN-5g0OcptFUe22VX-107" vertex="1" connectable="0"><mxGeometry x="0.8764" y="4" relative="1" as="geometry"><mxPoint as="offset"/></mxGeometry></mxCell><mxCell id="TYnw7XijjEmuvCzUd5s6-16" value="payment" style="shape=table;startSize=30;container=1;collapsible=1;childLayout=tableLayout;fixedRows=1;rowLines=0;fontStyle=1;align=center;resizeLast=1;" parent="1" vertex="1"><mxGeometry x="1030" y="360" width="250" height="150" as="geometry"/></mxCell><mxCell id="TYnw7XijjEmuvCzUd5s6-17" value="" style="shape=partialRectangle;collapsible=0;dropTarget=0;pointerEvents=0;fillColor=none;points=[[0,0.5],[1,0.5]];portConstraint=eastwest;top=0;left=0;right=0;bottom=1;" parent="TYnw7XijjEmuvCzUd5s6-16" vertex="1"><mxGeometry y="30" width="250" height="30" as="geometry"/></mxCell><mxCell id="TYnw7XijjEmuvCzUd5s6-18" value="PK" style="shape=partialRectangle;overflow=hidden;connectable=0;fillColor=none;top=0;left=0;bottom=0;right=0;fontStyle=1;" parent="TYnw7XijjEmuvCzUd5s6-17" vertex="1"><mxGeometry width="30" height="30" as="geometry"><mxRectangle width="30" height="30" as="alternateBounds"/></mxGeometry></mxCell><mxCell id="TYnw7XijjEmuvCzUd5s6-19" value="id bigint NOT NULL " style="shape=partialRectangle;overflow=hidden;connectable=0;fillColor=none;top=0;left=0;bottom=0;right=0;align=left;spacingLeft=6;fontStyle=5;" parent="TYnw7XijjEmuvCzUd5s6-17" vertex="1"><mxGeometry x="30" width="220" height="30" as="geometry"><mxRectangle width="220" height="30" as="alternateBounds"/></mxGeometry></mxCell><mxCell id="TYnw7XijjEmuvCzUd5s6-23" value="" style="shape=tableRow;horizontal=0;startSize=0;swimlaneHead=0;swimlaneBody=0;fillColor=none;collapsible=0;dropTarget=0;points=[[0,0.5],[1,0.5]];portConstraint=eastwest;top=0;left=0;right=0;bottom=0;" parent="TYnw7XijjEmuvCzUd5s6-16" vertex="1"><mxGeometry y="60" width="250" height="30" as="geometry"/></mxCell><mxCell id="TYnw7XijjEmuvCzUd5s6-24" value="" style="shape=partialRectangle;connectable=0;fillColor=none;top=0;left=0;bottom=0;right=0;editable=1;overflow=hidden;" parent="TYnw7XijjEmuvCzUd5s6-23" vertex="1"><mxGeometry width="30" height="30" as="geometry"><mxRectangle width="30" height="30" as="alternateBounds"/></mxGeometry></mxCell><mxCell id="TYnw7XijjEmuvCzUd5s6-25" value="amount_id varchar(3) NOT NULL" style="shape=partialRectangle;connectable=0;fillColor=none;top=0;left=0;bottom=0;right=0;align=left;spacingLeft=6;overflow=hidden;" parent="TYnw7XijjEmuvCzUd5s6-23" vertex="1"><mxGeometry x="30" width="220" height="30" as="geometry"><mxRectangle width="220" height="30" as="alternateBounds"/></mxGeometry></mxCell><mxCell id="TYnw7XijjEmuvCzUd5s6-29" value="" style="shape=tableRow;horizontal=0;startSize=0;swimlaneHead=0;swimlaneBody=0;fillColor=none;collapsible=0;dropTarget=0;points=[[0,0.5],[1,0.5]];portConstraint=eastwest;top=0;left=0;right=0;bottom=0;" parent="TYnw7XijjEmuvCzUd5s6-16" vertex="1"><mxGeometry y="90" width="250" height="30" as="geometry"/></mxCell><mxCell id="TYnw7XijjEmuvCzUd5s6-30" value="" style="shape=partialRectangle;connectable=0;fillColor=none;top=0;left=0;bottom=0;right=0;editable=1;overflow=hidden;" parent="TYnw7XijjEmuvCzUd5s6-29" vertex="1"><mxGeometry width="30" height="30" as="geometry"><mxRectangle width="30" height="30" as="alternateBounds"/></mxGeometry></mxCell><mxCell id="TYnw7XijjEmuvCzUd5s6-31" value="paymentMethod varchar(50) NOT NULL" style="shape=partialRectangle;connectable=0;fillColor=none;top=0;left=0;bottom=0;right=0;align=left;spacingLeft=6;overflow=hidden;" parent="TYnw7XijjEmuvCzUd5s6-29" vertex="1"><mxGeometry x="30" width="220" height="30" as="geometry"><mxRectangle width="220" height="30" as="alternateBounds"/></mxGeometry></mxCell><mxCell id="TYnw7XijjEmuvCzUd5s6-35" value="" style="shape=tableRow;horizontal=0;startSize=0;swimlaneHead=0;swimlaneBody=0;fillColor=none;collapsible=0;dropTarget=0;points=[[0,0.5],[1,0.5]];portConstraint=eastwest;top=0;left=0;right=0;bottom=0;" parent="TYnw7XijjEmuvCzUd5s6-16" vertex="1"><mxGeometry y="120" width="250" height="30" as="geometry"/></mxCell><mxCell id="TYnw7XijjEmuvCzUd5s6-36" value="" style="shape=partialRectangle;connectable=0;fillColor=none;top=0;left=0;bottom=0;right=0;editable=1;overflow=hidden;" parent="TYnw7XijjEmuvCzUd5s6-35" vertex="1"><mxGeometry width="30" height="30" as="geometry"><mxRectangle width="30" height="30" as="alternateBounds"/></mxGeometry></mxCell><mxCell id="TYnw7XijjEmuvCzUd5s6-37" value="paymentTimestamp DateTime NOT NULL" style="shape=partialRectangle;connectable=0;fillColor=none;top=0;left=0;bottom=0;right=0;align=left;spacingLeft=6;overflow=hidden;" parent="TYnw7XijjEmuvCzUd5s6-35" vertex="1"><mxGeometry x="30" width="220" height="30" as="geometry"><mxRectangle width="220" height="30" as="alternateBounds"/></mxGeometry></mxCell><mxCell id="TYnw7XijjEmuvCzUd5s6-38" value="" style="edgeStyle=orthogonalEdgeStyle;endArrow=none;startArrow=none;endFill=0;startFill=0;entryX=0;entryY=0.5;entryDx=0;entryDy=0;exitX=0;exitY=0.5;exitDx=0;exitDy=0;" parent="1" source="TYnw7XijjEmuvCzUd5s6-11" target="TYnw7XijjEmuvCzUd5s6-17" edge="1"><mxGeometry width="100" height="100" relative="1" as="geometry"><mxPoint x="840" y="340" as="sourcePoint"/><mxPoint x="630" y="715" as="targetPoint"/><Array as="points"><mxPoint x="1000" y="165"/><mxPoint x="1000" y="405"/></Array></mxGeometry></mxCell><mxCell id="TYnw7XijjEmuvCzUd5s6-39" value="m" style="edgeLabel;html=1;align=center;verticalAlign=middle;resizable=0;points=[];" parent="TYnw7XijjEmuvCzUd5s6-38" vertex="1" connectable="0"><mxGeometry x="0.8764" y="4" relative="1" as="geometry"><mxPoint x="-4" y="9" as="offset"/></mxGeometry></mxCell><mxCell id="TYnw7XijjEmuvCzUd5s6-40" value="1" style="edgeLabel;html=1;align=center;verticalAlign=middle;resizable=0;points=[];" parent="TYnw7XijjEmuvCzUd5s6-38" vertex="1" connectable="0"><mxGeometry x="-0.708" y="2" relative="1" as="geometry"><mxPoint x="-2" y="-10" as="offset"/></mxGeometry></mxCell><mxCell id="XLRby2MUS3FTOPXArCwn-43" value="" style="edgeStyle=orthogonalEdgeStyle;endArrow=none;startArrow=none;endFill=0;startFill=0;exitX=1;exitY=0.5;exitDx=0;exitDy=0;entryX=1;entryY=0.5;entryDx=0;entryDy=0;" parent="1" source="C-vyLk0tnHw3VtMMgP7b-14" target="So9mkL_Kvn5fJzCwnM9s-14" edge="1"><mxGeometry width="100" height="100" relative="1" as="geometry"><mxPoint x="880" y="490" as="sourcePoint"/><mxPoint x="1070" y="640" as="targetPoint"/><Array as="points"><mxPoint x="580" y="325"/><mxPoint x="580" y="735"/></Array></mxGeometry></mxCell><mxCell id="XLRby2MUS3FTOPXArCwn-44" value="m" style="edgeLabel;html=1;align=center;verticalAlign=middle;resizable=0;points=[];" parent="XLRby2MUS3FTOPXArCwn-43" vertex="1" connectable="0"><mxGeometry x="0.8764" y="4" relative="1" as="geometry"><mxPoint x="-9" y="9" as="offset"/></mxGeometry></mxCell><mxCell id="So9mkL_Kvn5fJzCwnM9s-4" value="reservationSeriesOverride" style="shape=table;startSize=30;container=1;collapsible=1;childLayout=tableLayout;fixedRows=1;rowLines=0;fontStyle=1;align=center;resizeLast=1;" parent="1" vertex="1"><mxGeometry x="302" y="600" width="218" height="240" as="geometry"/></mxCell><mxCell id="So9mkL_Kvn5fJzCwnM9s-5" value="" style="shape=partialRectangle;collapsible=0;dropTarget=0;pointerEvents=0;fillColor=none;points=[[0,0.5],[1,0.5]];portConstraint=eastwest;top=0;left=0;right=0;bottom=1;" parent="So9mkL_Kvn5fJzCwnM9s-4" vertex="1"><mxGeometry y="30" width="218" height="30" as="geometry"/></mxCell><mxCell id="So9mkL_Kvn5fJzCwnM9s-6" value="PK" style="shape=partialRectangle;overflow=hidden;connectable=0;fillColor=none;top=0;left=0;bottom=0;right=0;fontStyle=1;" parent="So9mkL_Kvn5fJzCwnM9s-5" vertex="1"><mxGeometry width="30" height="30" as="geometry"><mxRectangle width="30" height="30" as="alternateBounds"/></mxGeometry></mxCell><mxCell id="So9mkL_Kvn5fJzCwnM9s-7" value="id bigint NOT NULL " style="shape=partialRectangle;overflow=hidden;connectable=0;fillColor=none;top=0;left=0;bottom=0;right=0;align=left;spacingLeft=6;fontStyle=5;" parent="So9mkL_Kvn5fJzCwnM9s-5" vertex="1"><mxGeometry x="30" width="188" height="30" as="geometry"><mxRectangle width="188" height="30" as="alternateBounds"/></mxGeometry></mxCell><mxCell id="So9mkL_Kvn5fJzCwnM9s-8" value="" style="shape=tableRow;horizontal=0;startSize=0;swimlaneHead=0;swimlaneBody=0;fillColor=none;collapsible=0;dropTarget=0;points=[[0,0.5],[1,0.5]];portConstraint=eastwest;top=0;left=0;right=0;bottom=0;" parent="So9mkL_Kvn5fJzCwnM9s-4" vertex="1"><mxGeometry y="60" width="218" height="30" as="geometry"/></mxCell><mxCell id="So9mkL_Kvn5fJzCwnM9s-9" value="FK" style="shape=partialRectangle;connectable=0;fillColor=none;top=0;left=0;bottom=0;right=0;fontStyle=0;overflow=hidden;whiteSpace=wrap;html=1;" parent="So9mkL_Kvn5fJzCwnM9s-8" vertex="1"><mxGeometry width="30" height="30" as="geometry"><mxRectangle width="30" height="30" as="alternateBounds"/></mxGeometry></mxCell><mxCell id="So9mkL_Kvn5fJzCwnM9s-10" value="booking_id bigint" style="shape=partialRectangle;connectable=0;fillColor=none;top=0;left=0;bottom=0;right=0;align=left;spacingLeft=6;fontStyle=0;overflow=hidden;whiteSpace=wrap;html=1;" parent="So9mkL_Kvn5fJzCwnM9s-8" vertex="1"><mxGeometry x="30" width="188" height="30" as="geometry"><mxRectangle width="188" height="30" as="alternateBounds"/></mxGeometry></mxCell><mxCell id="So9mkL_Kvn5fJzCwnM9s-11" value="" style="shape=tableRow;horizontal=0;startSize=0;swimlaneHead=0;swimlaneBody=0;fillColor=none;collapsible=0;dropTarget=0;points=[[0,0.5],[1,0.5]];portConstraint=eastwest;top=0;left=0;right=0;bottom=0;" parent="So9mkL_Kvn5fJzCwnM9s-4" vertex="1"><mxGeometry y="90" width="218" height="30" as="geometry"/></mxCell><mxCell id="So9mkL_Kvn5fJzCwnM9s-12" value="FK" style="shape=partialRectangle;connectable=0;fillColor=none;top=0;left=0;bottom=0;right=0;fontStyle=0;overflow=hidden;whiteSpace=wrap;html=1;" parent="So9mkL_Kvn5fJzCwnM9s-11" vertex="1"><mxGeometry width="30" height="30" as="geometry"><mxRectangle width="30" height="30" as="alternateBounds"/></mxGeometry></mxCell><mxCell id="So9mkL_Kvn5fJzCwnM9s-13" value="contact_person_id bigint&amp;nbsp;NOT NULL" style="shape=partialRectangle;connectable=0;fillColor=none;top=0;left=0;bottom=0;right=0;align=left;spacingLeft=6;fontStyle=0;overflow=hidden;whiteSpace=wrap;html=1;" parent="So9mkL_Kvn5fJzCwnM9s-11" vertex="1"><mxGeometry x="30" width="188" height="30" as="geometry"><mxRectangle width="188" height="30" as="alternateBounds"/></mxGeometry></mxCell><mxCell id="So9mkL_Kvn5fJzCwnM9s-14" value="" style="shape=tableRow;horizontal=0;startSize=0;swimlaneHead=0;swimlaneBody=0;fillColor=none;collapsible=0;dropTarget=0;points=[[0,0.5],[1,0.5]];portConstraint=eastwest;top=0;left=0;right=0;bottom=0;" parent="So9mkL_Kvn5fJzCwnM9s-4" vertex="1"><mxGeometry y="120" width="218" height="30" as="geometry"/></mxCell><mxCell id="So9mkL_Kvn5fJzCwnM9s-15" value="FK" style="shape=partialRectangle;connectable=0;fillColor=none;top=0;left=0;bottom=0;right=0;fontStyle=0;overflow=hidden;whiteSpace=wrap;html=1;" parent="So9mkL_Kvn5fJzCwnM9s-14" vertex="1"><mxGeometry width="30" height="30" as="geometry"><mxRectangle width="30" height="30" as="alternateBounds"/></mxGeometry></mxCell><mxCell id="So9mkL_Kvn5fJzCwnM9s-16" value="rentalUnit_id bigint&amp;nbsp;NOT NULL" style="shape=partialRectangle;connectable=0;fillColor=none;top=0;left=0;bottom=0;right=0;align=left;spacingLeft=6;fontStyle=0;overflow=hidden;whiteSpace=wrap;html=1;" parent="So9mkL_Kvn5fJzCwnM9s-14" vertex="1"><mxGeometry x="30" width="188" height="30" as="geometry"><mxRectangle width="188" height="30" as="alternateBounds"/></mxGeometry></mxCell><mxCell id="So9mkL_Kvn5fJzCwnM9s-17" value="" style="shape=tableRow;horizontal=0;startSize=0;swimlaneHead=0;swimlaneBody=0;fillColor=none;collapsible=0;dropTarget=0;points=[[0,0.5],[1,0.5]];portConstraint=eastwest;top=0;left=0;right=0;bottom=0;" parent="So9mkL_Kvn5fJzCwnM9s-4" vertex="1"><mxGeometry y="150" width="218" height="30" as="geometry"/></mxCell><mxCell id="So9mkL_Kvn5fJzCwnM9s-18" value="" style="shape=partialRectangle;connectable=0;fillColor=none;top=0;left=0;bottom=0;right=0;editable=1;overflow=hidden;" parent="So9mkL_Kvn5fJzCwnM9s-17" vertex="1"><mxGeometry width="30" height="30" as="geometry"><mxRectangle width="30" height="30" as="alternateBounds"/></mxGeometry></mxCell><mxCell id="So9mkL_Kvn5fJzCwnM9s-19" value="reservationFrom dateTime NOT NULL" style="shape=partialRectangle;connectable=0;fillColor=none;top=0;left=0;bottom=0;right=0;align=left;spacingLeft=6;overflow=hidden;" parent="So9mkL_Kvn5fJzCwnM9s-17" vertex="1"><mxGeometry x="30" width="188" height="30" as="geometry"><mxRectangle width="188" height="30" as="alternateBounds"/></mxGeometry></mxCell><mxCell id="So9mkL_Kvn5fJzCwnM9s-20" value="" style="shape=tableRow;horizontal=0;startSize=0;swimlaneHead=0;swimlaneBody=0;fillColor=none;collapsible=0;dropTarget=0;points=[[0,0.5],[1,0.5]];portConstraint=eastwest;top=0;left=0;right=0;bottom=0;" parent="So9mkL_Kvn5fJzCwnM9s-4" vertex="1"><mxGeometry y="180" width="218" height="30" as="geometry"/></mxCell><mxCell id="So9mkL_Kvn5fJzCwnM9s-21" value="" style="shape=partialRectangle;connectable=0;fillColor=none;top=0;left=0;bottom=0;right=0;editable=1;overflow=hidden;" parent="So9mkL_Kvn5fJzCwnM9s-20" vertex="1"><mxGeometry width="30" height="30" as="geometry"><mxRectangle width="30" height="30" as="alternateBounds"/></mxGeometry></mxCell><mxCell id="So9mkL_Kvn5fJzCwnM9s-22" value="reservationTo dateTime NOT NULL" style="shape=partialRectangle;connectable=0;fillColor=none;top=0;left=0;bottom=0;right=0;align=left;spacingLeft=6;overflow=hidden;" parent="So9mkL_Kvn5fJzCwnM9s-20" vertex="1"><mxGeometry x="30" width="188" height="30" as="geometry"><mxRectangle width="188" height="30" as="alternateBounds"/></mxGeometry></mxCell><mxCell id="s86U_DRvaFwwrj0hK_C6-30" value="" style="shape=tableRow;horizontal=0;startSize=0;swimlaneHead=0;swimlaneBody=0;fillColor=none;collapsible=0;dropTarget=0;points=[[0,0.5],[1,0.5]];portConstraint=eastwest;top=0;left=0;right=0;bottom=0;" parent="So9mkL_Kvn5fJzCwnM9s-4" vertex="1"><mxGeometry y="210" width="218" height="30" as="geometry"/></mxCell><mxCell id="s86U_DRvaFwwrj0hK_C6-31" value="" style="shape=partialRectangle;connectable=0;fillColor=none;top=0;left=0;bottom=0;right=0;editable=1;overflow=hidden;" parent="s86U_DRvaFwwrj0hK_C6-30" vertex="1"><mxGeometry width="30" height="30" as="geometry"><mxRectangle width="30" height="30" as="alternateBounds"/></mxGeometry></mxCell><mxCell id="s86U_DRvaFwwrj0hK_C6-32" value="comment varchar(50) NOT NULL" style="shape=partialRectangle;connectable=0;fillColor=none;top=0;left=0;bottom=0;right=0;align=left;spacingLeft=6;overflow=hidden;" parent="s86U_DRvaFwwrj0hK_C6-30" vertex="1"><mxGeometry x="30" width="188" height="30" as="geometry"><mxRectangle width="188" height="30" as="alternateBounds"/></mxGeometry></mxCell><mxCell id="So9mkL_Kvn5fJzCwnM9s-34" value="" style="edgeStyle=orthogonalEdgeStyle;endArrow=none;startArrow=none;endFill=0;startFill=0;exitX=1;exitY=0.5;exitDx=0;exitDy=0;entryX=1;entryY=0.5;entryDx=0;entryDy=0;" parent="1" source="C-vyLk0tnHw3VtMMgP7b-3" target="So9mkL_Kvn5fJzCwnM9s-11" edge="1"><mxGeometry width="100" height="100" relative="1" as="geometry"><mxPoint x="532" y="95" as="sourcePoint"/><mxPoint x="532" y="575" as="targetPoint"/><Array as="points"><mxPoint x="560" y="85"/><mxPoint x="560" y="705"/></Array></mxGeometry></mxCell><mxCell id="So9mkL_Kvn5fJzCwnM9s-35" value="m" style="edgeLabel;html=1;align=center;verticalAlign=middle;resizable=0;points=[];" parent="So9mkL_Kvn5fJzCwnM9s-34" vertex="1" connectable="0"><mxGeometry x="0.9198" y="-4" relative="1" as="geometry"><mxPoint x="4" y="6" as="offset"/></mxGeometry></mxCell><mxCell id="So9mkL_Kvn5fJzCwnM9s-38" value="" style="edgeStyle=orthogonalEdgeStyle;endArrow=none;startArrow=none;endFill=0;startFill=0;exitX=0;exitY=0.5;exitDx=0;exitDy=0;entryX=1;entryY=0.5;entryDx=0;entryDy=0;" parent="1" source="lqvGJIxWQBwntYFB9ahe-150" target="So9mkL_Kvn5fJzCwnM9s-8" edge="1"><mxGeometry width="100" height="100" relative="1" as="geometry"><mxPoint x="630" y="255" as="sourcePoint"/><mxPoint x="630" y="645" as="targetPoint"/><Array as="points"><mxPoint x="960" y="75"/><mxPoint x="960" y="380"/><mxPoint x="740" y="380"/><mxPoint x="740" y="675"/></Array></mxGeometry></mxCell><mxCell id="So9mkL_Kvn5fJzCwnM9s-39" value="m" style="edgeLabel;html=1;align=center;verticalAlign=middle;resizable=0;points=[];" parent="So9mkL_Kvn5fJzCwnM9s-38" vertex="1" connectable="0"><mxGeometry x="0.8764" y="4" relative="1" as="geometry"><mxPoint x="-50" y="1" as="offset"/></mxGeometry></mxCell><mxCell id="So9mkL_Kvn5fJzCwnM9s-40" value="1" style="edgeLabel;html=1;align=center;verticalAlign=middle;resizable=0;points=[];" parent="So9mkL_Kvn5fJzCwnM9s-38" vertex="1" connectable="0"><mxGeometry x="-0.708" y="2" relative="1" as="geometry"><mxPoint x="10" y="-26" as="offset"/></mxGeometry></mxCell><mxCell id="qAmCMtocggOhdzJVNM2w-1" value="" style="edgeStyle=orthogonalEdgeStyle;endArrow=none;startArrow=none;endFill=0;startFill=0;exitX=1;exitY=0.5;exitDx=0;exitDy=0;entryX=0;entryY=0.5;entryDx=0;entryDy=0;" parent="1" source="lqvGJIxWQBwntYFB9ahe-163" target="lqvGJIxWQBwntYFB9ahe-159" edge="1"><mxGeometry width="100" height="100" relative="1" as="geometry"><mxPoint x="970" y="70" as="sourcePoint"/><mxPoint x="980" y="250" as="targetPoint"/><Array as="points"><mxPoint x="920" y="85"/><mxPoint x="920" y="105"/></Array></mxGeometry></mxCell><mxCell id="qAmCMtocggOhdzJVNM2w-2" value="m" style="edgeLabel;html=1;align=center;verticalAlign=middle;resizable=0;points=[];" parent="qAmCMtocggOhdzJVNM2w-1" vertex="1" connectable="0"><mxGeometry x="0.9198" y="-4" relative="1" as="geometry"><mxPoint x="-4" y="6" as="offset"/></mxGeometry></mxCell><mxCell id="qAmCMtocggOhdzJVNM2w-3" value="1" style="edgeLabel;html=1;align=center;verticalAlign=middle;resizable=0;points=[];" parent="qAmCMtocggOhdzJVNM2w-1" vertex="1" connectable="0"><mxGeometry x="-0.9477" y="1" relative="1" as="geometry"><mxPoint y="11" as="offset"/></mxGeometry></mxCell><mxCell id="s86U_DRvaFwwrj0hK_C6-8" value="" style="edgeStyle=orthogonalEdgeStyle;endArrow=none;startArrow=none;endFill=0;startFill=0;entryX=0;entryY=0.5;entryDx=0;entryDy=0;exitX=1;exitY=0.5;exitDx=0;exitDy=0;" parent="1" source="-pVWN-5g0OcptFUe22VX-76" target="-pVWN-5g0OcptFUe22VX-86" edge="1"><mxGeometry width="100" height="100" relative="1" as="geometry"><mxPoint x="532" y="515" as="sourcePoint"/><mxPoint x="680" y="95" as="targetPoint"/><Array as="points"><mxPoint x="690" y="475"/><mxPoint x="690" y="245"/></Array></mxGeometry></mxCell><mxCell id="s86U_DRvaFwwrj0hK_C6-9" value="1" style="edgeLabel;html=1;align=center;verticalAlign=middle;resizable=0;points=[];" parent="s86U_DRvaFwwrj0hK_C6-8" vertex="1" connectable="0"><mxGeometry x="0.9198" y="-4" relative="1" as="geometry"><mxPoint x="-15" y="-9" as="offset"/></mxGeometry></mxCell><mxCell id="s86U_DRvaFwwrj0hK_C6-10" value="1" style="edgeLabel;html=1;align=center;verticalAlign=middle;resizable=0;points=[];" parent="s86U_DRvaFwwrj0hK_C6-8" vertex="1" connectable="0"><mxGeometry x="-0.9477" y="1" relative="1" as="geometry"><mxPoint x="-11" y="6" as="offset"/></mxGeometry></mxCell><mxCell id="2" value="" style="edgeStyle=orthogonalEdgeStyle;endArrow=none;startArrow=none;endFill=0;startFill=0;entryX=1;entryY=0.5;entryDx=0;entryDy=0;" parent="1" target="TYnw7XijjEmuvCzUd5s6-23" edge="1"><mxGeometry width="100" height="100" relative="1" as="geometry"><mxPoint x="1230" y="245" as="sourcePoint"/><mxPoint x="1040" y="414.9999999999999" as="targetPoint"/><Array as="points"><mxPoint x="1320" y="245"/><mxPoint x="1320" y="435"/></Array></mxGeometry></mxCell><mxCell id="3" value="1" style="edgeLabel;html=1;align=center;verticalAlign=middle;resizable=0;points=[];" parent="2" vertex="1" connectable="0"><mxGeometry x="0.8764" y="4" relative="1" as="geometry"><mxPoint x="-4" y="9" as="offset"/></mxGeometry></mxCell><mxCell id="4" value="1" style="edgeLabel;html=1;align=center;verticalAlign=middle;resizable=0;points=[];" parent="2" vertex="1" connectable="0"><mxGeometry x="-0.708" y="2" relative="1" as="geometry"><mxPoint x="-27" y="-3" as="offset"/></mxGeometry></mxCell></root></mxGraphModel></diagram></mxfile>